<?xml version="1.0" encoding="UTF-8" standalone="no"?>
<svg
   xmlns:dc="http://purl.org/dc/elements/1.1/"
   xmlns:cc="http://creativecommons.org/ns#"
   xmlns:rdf="http://www.w3.org/1999/02/22-rdf-syntax-ns#"
   xmlns:svg="http://www.w3.org/2000/svg"
   xmlns="http://www.w3.org/2000/svg"
   xmlns:sodipodi="http://sodipodi.sourceforge.net/DTD/sodipodi-0.dtd"
   xmlns:inkscape="http://www.inkscape.org/namespaces/inkscape"
   width="210mm"
   height="297mm"
   viewBox="0 0 210 297"
   version="1.1"
   id="svg8"
   inkscape:version="1.0.2 (e86c870879, 2021-01-15, custom)"
   sodipodi:docname="carolinedrawing.svg">
  <defs
     id="defs2" />
  <sodipodi:namedview
     id="base"
     pagecolor="#ffffff"
     bordercolor="#666666"
     borderopacity="1.0"
     inkscape:pageopacity="0.0"
     inkscape:pageshadow="2"
     inkscape:zoom="0.49497475"
     inkscape:cx="701.87009"
     inkscape:cy="584.76957"
     inkscape:document-units="mm"
     inkscape:current-layer="layer1"
     inkscape:document-rotation="0"
     showgrid="false"
     inkscape:snap-nodes="true"
     inkscape:snap-global="true"
     inkscape:window-width="1368"
     inkscape:window-height="850"
     inkscape:window-x="-6"
     inkscape:window-y="-6"
     inkscape:window-maximized="1" />
  <metadata
     id="metadata5">
    <rdf:RDF>
      <cc:Work
         rdf:about="">
        <dc:format>image/svg+xml</dc:format>
        <dc:type
           rdf:resource="http://purl.org/dc/dcmitype/StillImage" />
        <dc:title></dc:title>
      </cc:Work>
    </rdf:RDF>
  </metadata>
  <g
     inkscape:label="Layer 1"
     inkscape:groupmode="layer"
     id="layer1">
    <path
       style="fill:none;stroke:#000000;stroke-width:0.5753;stroke-opacity:1"
       d="m 161.77742,199.65997 c -0.19097,-0.6833 -0.66904,-5.19883 -1.06239,-10.0345 l -0.71517,-8.79214 -2.91789,2.34592 c -7.40431,5.95291 -7.61802,5.94151 -4.29692,-0.22923 1.16587,-2.16623 2.03567,-4.01192 1.9329,-4.10153 -0.10277,-0.0896 -3.66608,-0.44852 -7.91847,-0.79758 -15.57069,-1.27813 -15.92171,-1.97383 -1.45492,-2.88365 5.3797,-0.33832 9.89684,-0.71683 10.03809,-0.84112 0.14126,-0.12428 -0.59473,-1.34908 -1.63553,-2.72177 -1.04079,-1.37268 -2.74391,-3.6189 -3.78471,-4.99158 -1.04079,-1.37269 -1.72277,-2.65448 -1.5155,-2.84842 0.38674,-0.36186 0.65478,-0.19082 6.94088,4.42906 2.02213,1.48613 3.82282,2.56525 4.00153,2.39803 0.17871,-0.16722 0.66462,-4.4617 1.0798,-9.54329 0.75078,-9.18914 1.1403,-11.07744 1.76597,-8.56097 0.56212,2.26086 1.50405,11.18922 1.5187,14.3954 0.0224,4.90793 0.4452,4.99472 5.28741,1.08546 2.35064,-1.89774 4.40876,-3.32424 4.57359,-3.17001 0.16484,0.15424 -0.8167,2.32436 -2.18119,4.82251 -1.36449,2.49814 -2.38035,4.63559 -2.25745,4.74989 0.12289,0.1143 3.9703,0.48774 8.5498,0.82986 9.29328,0.69429 11.59742,1.02638 11.59742,1.67151 0,0.45746 -3.74181,0.84775 -14.12507,1.47329 -3.35284,0.20199 -6.09608,0.48468 -6.09608,0.62821 0,0.14352 1.49304,2.24334 3.31787,4.66626 1.82483,2.42293 3.22505,4.66587 3.11161,4.98432 -0.11345,0.31844 -2.43274,-1.06237 -5.15398,-3.06848 -2.72124,-2.0061 -5.192,-3.64746 -5.49057,-3.64746 -0.29857,0 -0.55066,0.81387 -0.5602,1.80861 -0.01,0.99473 -0.27032,5.04517 -0.57951,9.00097 -0.54729,7.00194 -1.25569,9.49838 -1.97002,6.94243 z m 1.11628,-17.05639 c 0.22032,-1.85653 0.62801,-2.9216 1.11834,-2.9216 0.42439,0 2.21165,1.0643 3.9717,2.3651 2.33476,1.72557 2.91492,1.98891 2.14555,0.97387 -1.98768,-2.62237 -3.40158,-4.73037 -3.40381,-5.07476 -0.003,-0.52241 3.96714,-1.02717 8.62151,-1.09603 5.86422,-0.0868 2.70023,-0.93576 -3.7572,-1.00817 -4.84821,-0.0544 -4.93824,-0.0804 -4.52235,-1.30759 0.23338,-0.68866 1.05432,-2.18622 1.8243,-3.32791 2.10967,-3.12812 1.70756,-3.1743 -1.54426,-0.17735 -4.13439,3.81036 -4.7612,3.21387 -4.8676,-4.63205 l -0.0802,-5.91418 -0.67221,5.94435 c -0.36971,3.26939 -0.85481,6.11521 -1.07799,6.32404 -0.48791,0.45654 -3.97825,-1.48839 -5.50627,-3.06826 -1.77313,-1.83329 -2.34907,-1.2915 -0.64339,0.60524 2.33112,2.59223 3.43601,4.79876 2.63489,5.26204 -0.3647,0.2109 -3.10696,0.52462 -6.0939,0.69715 -6.09575,0.35209 -4.82218,1.0283 2.15212,1.14269 2.5661,0.0421 4.01449,0.29461 4.01449,0.69991 0,0.34874 -0.83912,1.91388 -1.86471,3.47809 l -1.86471,2.84403 3.02197,-2.63746 c 3.64053,-3.1773 4.87063,-3.07896 4.87063,0.38938 0,1.29968 0.20072,3.96493 0.44606,5.92278 l 0.44605,3.55973 0.14214,-3.06072 c 0.0782,-1.6834 0.29815,-4.37544 0.48885,-5.98232 z m -6.17993,9.04304 c -0.01,-0.61215 0.21253,-1.61384 0.49365,-2.22598 0.65125,-1.41808 0.65125,0.045 0,1.94773 -0.38279,1.1184 -0.4796,1.17297 -0.49365,0.27825 z m 12.15471,-0.0455 c -0.19855,-0.48414 -0.361,-1.28327 -0.361,-1.77585 0,-0.73928 0.1524,-0.70706 0.8732,0.18464 0.98525,1.21886 1.1778,2.47147 0.37991,2.47147 -0.29211,0 -0.69356,-0.39612 -0.89211,-0.88026 z m -22.87108,-7.44165 c 0.12522,-0.35149 1.15981,-1.17663 2.29909,-1.83365 l 2.07143,-1.19459 -1.18283,1.27466 c -1.44387,1.55598 -3.52517,2.70092 -3.18769,1.75358 z m 29.31458,-2.55855 c -1.10928,-0.82975 -1.09627,-0.8489 0.33238,-0.48918 0.81776,0.20591 1.8883,0.58689 2.37896,0.84663 0.71248,0.37717 0.64555,0.47567 -0.33239,0.48918 -0.67347,0.009 -1.744,-0.37168 -2.37895,-0.84663 z m -29.10724,-9.5578 c -0.98132,-0.13073 -2.05186,-0.50196 -2.37896,-0.82495 -0.77616,-0.7664 3.28652,-0.0917 4.11485,0.68334 0.32098,0.30033 0.46316,0.50854 0.31596,0.46268 -0.1472,-0.0459 -1.07053,-0.19034 -2.05185,-0.32107 z m 28.54751,-0.97388 c 1.83998,-1.44233 2.67633,-1.73943 2.67633,-0.95072 0,0.24938 -1.00363,0.88001 -2.23028,1.40138 l -2.23027,0.94796 z m -18.66647,-6.58814 c -1.36155,-2.06137 -1.52326,-2.60693 -0.77273,-2.60693 0.5659,0 2.66221,3.91899 2.28507,4.27188 -0.14026,0.13124 -0.82081,-0.61799 -1.51234,-1.66495 z m 11.53774,-0.1027 c 0.20537,-0.91822 0.62209,-1.90739 0.92605,-2.19816 0.89635,-0.85746 0.61169,0.9296 -0.39447,2.4764 l -0.90497,1.39124 z"
       id="path891" />
    <path
       style="fill:none;stroke:#000000;stroke-width:0.473485;stroke-opacity:1"
       d="m 36.176766,112.9939 c 0,-0.15695 0.42394,-2.05748 0.94209,-4.2234 0.51815,-2.16592 0.84454,-4.20933 0.72532,-4.54091 -0.11922,-0.33159 -1.58078,-0.99695 -3.24791,-1.47858 -1.6731,-0.48336 -2.95725,-1.11229 -2.86621,-1.40379 0.0907,-0.29045 1.82893,-0.9277 3.8627,-1.416108 4.09757,-0.98404 4.22832,-1.14526 4.24934,-5.23967 0.0139,-2.70361 0.48006,-5.87128 0.86324,-5.86571 0.15608,0.002 0.99492,1.43305 1.86409,3.1795 0.86918,1.74645 1.61802,3.17537 1.66408,3.17537 0.0461,0 2.1271,-2.14616 4.62452,-4.76924 2.49742,-2.62309 5.5408,-5.51999 6.76307,-6.43756 1.609983,-1.20863 0.715663,-0.063 -3.2458,4.15781 -8.01266,8.53727 -9.61467,11.35199 -3.77624,6.63482 1.61387,-1.30393 3.6555,-2.75985 4.53695,-3.23538 1.85513,-1.00081 1.61122,-0.72285 -1.83474,2.09091 -5.02195,4.1006 -5.39256,4.48839 -4.2921,4.49113 0.53821,0.001 2.08504,-0.95268 3.43739,-2.12004 3.02222,-2.60879 10.937693,-7.66826 10.937693,-6.99124 0,0.11294 -2.40268,2.01743 -5.339293,4.23221 -4.24232,3.19953 -5.18787,4.11732 -4.60222,4.46712 0.44252,0.26431 0.62199,0.76038 0.44908,1.24129 -0.31909,0.88749 -0.24252,0.8506 2.85311,-1.37455 2.890443,-2.07765 12.478913,-7.04075 16.264003,-8.41842 4.4335,-1.61368 10.62482,-3.27517 11.99262,-3.21832 0.58819,0.0244 -0.0649,0.36263 -1.45131,0.75152 -12.26043,3.43906 -23.29983,9.24249 -32.255053,16.956508 l -1.3186,1.13584 1.21018,2.4178 c 1.10523,2.20811 1.13879,2.43015 0.38698,2.56018 -0.45276,0.0783 -2.02425,-0.42451 -3.4922,-1.11739 -3.00729,-1.41944 -2.63511,-1.55029 -6.55454,2.30429 -2.142,2.10656 -3.35024,2.84732 -3.35024,2.05401 z m 6.32295,-7.02335 c 0.88915,-0.4869 1.37772,-0.38211 3.15137,0.6759 1.1545,0.68867 2.18492,1.25213 2.28984,1.25213 0.10491,0 -0.3467,-0.97879 -1.00358,-2.17508 -1.40165,-2.55265 -1.15122,-3.48939 1.37905,-5.15839 0.88545,-0.584058 1.60991,-1.145748 1.60991,-1.248198 0,-0.10245 -1.34058,-0.0527 -2.97906,0.11063 -2.47911,0.24708 -2.97907,0.17242 -2.97907,-0.44483 0,-0.40795 -0.49414,-1.92559 -1.0981,-3.37252 l -1.09809,-2.63078 -0.33485,3.53304 c -0.36639,3.865868 -0.24666,3.737928 -4.00886,4.283678 -2.51005,0.36411 -2.5106,0.96483 -10e-4,1.41263 2.92299,0.52162 3.03621,0.77582 1.73945,3.9053 -1.57299,3.79611 -1.45715,4.24652 0.5623,2.1862 0.94528,-0.96441 2.19223,-2.01278 2.77098,-2.32971 z M 59.321829,87.096812 c 1.0083,-0.66281 2.14263,-1.19629 2.52074,-1.18551 0.72874,0.0208 -3.11395,2.37212 -3.89569,2.38378 -0.25208,0.004 0.36665,-0.53546 1.37495,-1.19827 z m 7.79139,-1.46775 c 1.84049,-1.21015 7.46681,-3.43136 7.79754,-3.07838 0.20945,0.22355 -8.55107,4.32126 -9.19095,4.29905 -0.24192,-0.008 0.38511,-0.5577 1.39341,-1.22067 z m -12.811323,-3.70324 c 2.190593,-2.42342 5.857333,-5.15241 9.704613,-7.22271 4.24343,-2.28347 4.09798,-1.85561 -0.26279,0.77303 -2.10531,1.26906 -5.34648,3.69036 -7.20262,5.38066 -3.858263,3.51353 -4.897233,4.00954 -2.239203,1.06902 z"
       id="path66" />
    <path
       style="fill:none;stroke:#000000;stroke-width:0.284406;stroke-opacity:1"
       d="m 57.722507,141.02178 c -1.909471,-1.48001 -2.971989,-4.41648 -2.968463,-8.20391 0.006,-6.51245 3.424206,-10.62179 7.096497,-8.5315 1.138755,0.64818 1.673715,1.45601 1.336855,2.01875 -0.140821,0.23523 -0.583651,0.0882 -1.276315,-0.42356 -2.234738,-1.65136 -4.844359,-0.27535 -5.812255,3.0647 -0.618837,2.13551 -0.635559,5.63377 -0.0363,7.59601 1.116643,3.65645 3.772115,5.03827 5.993835,3.11901 0.674895,-0.58301 1.277314,-0.47579 1.277314,0.22735 0,0.2184 -0.420837,0.71621 -0.935193,1.10623 -1.2419,0.9417 -3.479117,0.95459 -4.675967,0.0269 z m 10.89225,0.0719 c 0,-0.75689 3.857183,-16.62423 4.166978,-17.14175 0.308852,-0.51594 0.733269,0.90895 2.76074,9.2687 1.356091,5.59147 1.837803,7.97199 1.669932,8.25243 -0.329149,0.54985 -0.54895,0.0769 -1.166681,-2.50986 l -0.526676,-2.20557 h -2.58722 -2.587217 l -0.589871,2.35912 c -0.5855,2.34163 -1.139985,3.30319 -1.139985,1.97691 z m 6.275106,-6.70531 c -0.4868,-2.56219 -1.830158,-7.5279 -1.999832,-7.39235 -0.174703,0.13957 -1.601601,5.52019 -1.979446,7.4642 -0.113235,0.58258 0.07499,0.64328 1.995058,0.64328 2.000126,0 2.1124,-0.0404 1.98422,-0.71513 z m 8.839264,7.09437 c -0.08321,-0.13904 -0.151281,-4.11243 -0.151281,-8.82985 v -8.57713 h 2.843707 c 2.722052,0 2.872044,0.0399 3.506039,0.93101 0.795709,1.1185 1.225464,3.08217 1.038632,4.74585 -0.136571,1.21612 -0.890606,2.89669 -1.43592,3.20034 -0.196931,0.10969 -0.08158,0.5061 0.363711,1.24996 0.51815,0.86559 0.683732,1.53877 0.806022,3.27696 0.08465,1.20315 0.316617,2.48792 0.515485,2.855 0.27911,0.51521 0.301981,0.767 0.10028,1.10394 -0.498964,0.83353 -1.197403,-0.90625 -1.375229,-3.42566 -0.240045,-3.40091 -0.569809,-3.79852 -3.279838,-3.95458 l -2.18686,-0.12597 -0.06293,3.77198 c -0.05809,3.48162 -0.243678,4.51 -0.681814,3.77809 z m 5.137012,-9.14241 c 0.695377,-0.60071 1.31307,-2.24053 1.31307,-3.48588 0,-1.34297 -0.618596,-2.84462 -1.346423,-3.26848 -0.384811,-0.22409 -1.526556,-0.40743 -2.537207,-0.40743 h -1.837551 v 3.8597 3.85971 h 1.881313 c 1.251231,0 2.097498,-0.18675 2.526798,-0.55762 z m 11.249661,8.77674 c -1.913034,-1.62449 -2.779574,-4.24107 -2.782824,-8.40291 -0.002,-2.45961 0.0877,-3.20856 0.54782,-4.57773 1.50251,-4.47106 4.971614,-5.81094 7.317224,-2.82613 1.48832,1.8939 2.03471,3.88414 2.03471,7.41148 0,3.64723 -0.60759,5.91034 -2.05612,7.65859 -0.84351,1.01803 -1.15396,1.16587 -2.64055,1.25751 -1.24693,0.0769 -1.87577,-0.0585 -2.42026,-0.52081 z m 3.31431,-0.88347 c 1.78926,-0.83013 3.01876,-3.74951 3.02763,-7.1889 0.0123,-4.78088 -1.6086,-7.86616 -4.13265,-7.86616 -2.992204,0 -4.900784,4.92271 -4.002644,10.32382 0.30403,1.82839 1.47953,3.95096 2.528974,4.56649 1.07082,0.62806 1.51843,0.65666 2.57869,0.1648 z m 10.39513,1.02915 c -0.0605,-0.26303 -0.0831,-4.19417 -0.0505,-8.73589 0.0541,-7.52646 0.0935,-8.26862 0.44444,-8.38133 0.35733,-0.1147 0.38508,0.46011 0.38508,7.97898 v 8.10263 l 2.69556,0.10325 c 2.22189,0.085 2.69556,0.20011 2.69556,0.6546 0,0.45847 -0.51061,0.56863 -3.03014,0.65369 -2.32911,0.0787 -3.05556,-0.009 -3.13999,-0.3759 z m 12.37266,0.21999 c -0.0833,-0.13904 -0.15128,-4.11243 -0.15128,-8.82985 0,-8.35771 0.0114,-8.57713 0.44407,-8.57713 0.43455,0 0.4428,0.18651 0.38508,8.69986 -0.0558,8.22945 -0.16031,9.57173 -0.67787,8.70712 z m 7.87614,-0.19985 c -0.063,-0.2741 -0.0878,-4.21431 -0.0551,-8.75603 0.0503,-7.00285 0.10951,-8.27143 0.38942,-8.34825 0.20428,-0.056 1.58804,2.74406 3.63075,7.34702 l 3.30069,7.43757 0.0596,-7.44371 c 0.0506,-6.32152 0.10923,-7.44373 0.38906,-7.44373 0.285,0 0.32153,1.17457 0.2705,8.69986 -0.0384,5.65852 -0.13968,8.74471 -0.2898,8.82817 -0.12694,0.0705 -1.71127,-3.21354 -3.52073,-7.29803 l -3.28992,-7.42634 -0.11002,7.2983 c -0.081,5.37602 -0.18245,7.33853 -0.38497,7.45094 -0.15122,0.0839 -0.32646,-0.0718 -0.38942,-0.34577 z m 15.45002,0.20208 c -0.084,-0.14029 -0.15263,-4.11466 -0.15263,-8.83208 v -8.57713 h 3.19065 c 2.68946,0 3.19067,0.0866 3.19067,0.55139 0,0.46072 -0.45232,0.55139 -2.75057,0.55139 h -2.75057 v 3.29588 3.29589 l 2.36549,0.10432 c 1.9282,0.085 2.36549,0.20627 2.36549,0.65574 0,0.44944 -0.43729,0.57066 -2.36549,0.65571 l -2.36549,0.10432 v 3.46838 3.46836 l 2.69556,0.10325 c 2.22189,0.085 2.69556,0.20011 2.69556,0.6546 0,0.458 -0.50523,0.56863 -2.98302,0.65319 -1.64066,0.056 -3.05171,-0.0125 -3.13565,-0.15317 z"
       id="path943" />
  </g>
</svg>
