<?xml version="1.0" encoding="UTF-8" standalone="no"?>
<svg
   xmlns:dc="http://purl.org/dc/elements/1.1/"
   xmlns:cc="http://creativecommons.org/ns#"
   xmlns:rdf="http://www.w3.org/1999/02/22-rdf-syntax-ns#"
   xmlns:svg="http://www.w3.org/2000/svg"
   xmlns="http://www.w3.org/2000/svg"
   xmlns:sodipodi="http://sodipodi.sourceforge.net/DTD/sodipodi-0.dtd"
   xmlns:inkscape="http://www.inkscape.org/namespaces/inkscape"
   width="210mm"
   height="297mm"
   viewBox="0 0 210 297"
   version="1.1"
   id="svg8"
   inkscape:version="1.0.2 (e86c870879, 2021-01-15, custom)"
   sodipodi:docname="drawing.svg">
  <defs
     id="defs2" />
  <sodipodi:namedview
     id="base"
     pagecolor="#ffffff"
     bordercolor="#666666"
     borderopacity="1.0"
     inkscape:pageopacity="0.0"
     inkscape:pageshadow="2"
     inkscape:zoom="0.35"
     inkscape:cx="40.258718"
     inkscape:cy="461.4433"
     inkscape:document-units="mm"
     inkscape:current-layer="layer1"
     inkscape:document-rotation="0"
     showgrid="false"
     inkscape:window-width="1346"
     inkscape:window-height="872"
     inkscape:window-x="9"
     inkscape:window-y="0"
     inkscape:window-maximized="0" />
  <metadata
     id="metadata5">
    <rdf:RDF>
      <cc:Work
         rdf:about="">
        <dc:format>image/svg+xml</dc:format>
        <dc:type
           rdf:resource="http://purl.org/dc/dcmitype/StillImage" />
        <dc:title></dc:title>
      </cc:Work>
    </rdf:RDF>
  </metadata>
  <g
     inkscape:label="Layer 1"
     inkscape:groupmode="layer"
     id="layer1">
    <path
       style="fill:none;stroke:#000000;stroke-width:0.95598;stroke-opacity:1"
       d="m 63.225884,259.82865 c -4.485412,-2.09537 -7.663406,-6.99269 -9.561563,-14.73449 -2.014217,-8.2151 -6.000858,-20.02626 -7.375617,-21.85164 -0.818262,-1.08647 -0.912578,-0.87991 -0.425075,0.93086 0.344584,1.27994 0.884506,5.74533 1.199822,9.92309 0.549106,7.2755 0.46604,7.69761 -1.969401,10.00675 -2.941727,2.78917 -7.850315,3.21914 -11.217995,0.98265 -1.182788,-0.7855 -3.891833,-4.95132 -6.020079,-9.25737 -3.105115,-6.28252 -4.685205,-8.34502 -7.998331,-10.44031 -2.270822,-1.4361 -5.903036,-4.10528 -8.071579,-5.93151 -4.5113927,-3.79921 -5.4919097,-7.30514 -5.5910767,-19.99136 -0.04052,-5.18469 -0.84665,-10.05109 -2.621365,-15.82464 -2.83188967,-9.2128 -2.99285267,-13.05359 -1.4444829,-34.46835 0.991266,-13.70986 2.4384823,-18.90986 8.4103186,-30.21925 4.582276,-8.67785 9.79319,-12.45541 18.795276,-13.6253 l 4.550838,-0.59142 -0.551171,-6.233448 c -0.385251,-4.35689 -1.448456,-7.8867 -3.531693,-11.7251 -1.639284,-3.0204 -3.715859,-9.05219 -4.614611,-13.40396 -1.07942,-5.226592 -3.141687,-10.756042 -6.075556,-16.290077 -3.710867,-6.99966 -4.45705,-9.29648 -4.53623,-13.96292 -0.09434,-5.560272 -0.08148,-5.586401 2.882172,-5.861742 1.902367,-0.176739 4.117123,0.495278 6.135655,1.861723 1.737291,1.176062 5.483894,3.710248 8.325786,5.631522 l 5.167074,3.493227 6.926039,-2.759106 c 4.745419,-1.890417 9.451137,-2.958771 14.946167,-3.393275 l 8.020128,-0.634168 5.408896,-6.813702 c 2.974897,-3.747537 6.376582,-7.304732 7.559309,-7.904881 4.964504,-2.519141 8.712302,7.492357 7.284914,19.460216 -0.399033,3.345733 -0.05563,8.385004 0.93179,13.67569 1.022916,5.480572 1.355485,10.631115 0.961673,14.893783 -0.808075,8.74667 1.435088,20.27471 6.084387,31.268748 l 3.70381,8.75829 -0.0178,20.94438 -0.0178,20.94438 -5.187432,13.96292 c -2.853089,7.6796 -5.832266,16.84077 -6.62039,20.35814 -1.941206,8.66346 -2.808379,29.08913 -1.273175,29.98873 0.762785,0.44698 0.904359,0.234 0.421892,-0.63468 -0.399366,-0.71907 0.613187,0.0355 2.250124,1.67673 3.978547,3.98911 4.946952,8.91085 2.404276,12.21946 -1.903352,2.47668 -1.902446,2.49052 0.366363,5.64573 2.978421,4.14203 3.079627,13.12712 0.147867,13.12712 -0.514063,0 -0.619444,-0.48362 -0.234149,-1.07469 0.437502,-0.67119 0.268936,-0.82179 -0.448963,-0.40112 -0.632207,0.37047 -0.909001,1.0425 -0.615077,1.49342 0.777894,1.1934 -2.87289,2.79272 -6.083035,2.66483 l -2.764495,-0.11013 2.945321,-0.71059 c 2.718405,-0.65585 2.756233,-0.7181 0.490887,-0.80802 -4.038242,-0.16029 -6.558471,0.83963 -7.840409,3.11075 -2.35286,4.16838 -7.991916,5.2596 -13.612101,2.63411 z m 6.971338,0.0318 c -0.674965,-0.25823 -1.779461,-0.25823 -2.454435,0 -0.674965,0.25823 -0.122722,0.46952 1.227217,0.46952 1.349939,0 1.902192,-0.21129 1.227218,-0.46952 z m 3.235395,-3.53008 c 1.325392,-1.25666 2.409813,-2.98105 2.409813,-3.83196 0,-1.57713 0.130939,-1.57336 7.606928,0.21888 1.265933,0.30349 3.254643,-0.1216 4.663425,-0.99681 3.674375,-2.28269 3.439522,-7.68842 -0.489067,-11.25706 -2.763344,-2.51016 -2.945322,-2.55386 -2.945322,-0.70715 0,2.45461 -4.599503,6.0026 -7.305761,5.63557 -1.111606,-0.15077 -2.683794,0.45243 -3.493751,1.34042 -1.675705,1.83716 -13.18758,4.87248 -14.829791,3.91018 -0.595248,-0.34881 -0.282199,0.52354 0.695655,1.93854 2.027277,2.93357 6.905885,6.02561 9.515324,6.03075 0.969504,0.002 2.847147,-1.0247 4.172547,-2.28136 z m -11.335029,1.00251 c 0,-0.19328 -0.773148,-0.92634 -1.718104,-1.629 -1.55715,-1.15787 -1.591876,-1.12494 -0.370671,0.35146 1.282554,1.55058 2.088775,2.04369 2.088775,1.27754 z m 4.670958,-10.37269 c 3.398327,-0.95685 5.233308,-2.0308 5.662953,-3.31428 0.501398,-1.49787 1.191674,-1.78293 3.269585,-1.35021 1.511517,0.31477 3.379475,0.0316 4.383362,-0.66433 1.568655,-1.08755 1.786035,-3.37421 2.104138,-22.13478 0.412796,-24.34508 1.222154,-29.1289 8.267812,-48.86849 5.458507,-15.29289 7.099097,-25.10752 6.064947,-36.28287 l -0.60297,-6.51603 -1.721412,3.66913 c -2.733329,5.82598 -2.915236,7.5657 -1.132796,10.83383 1.276937,2.34125 1.531293,4.35438 1.074138,8.50135 -0.693853,6.29421 -2.248445,9.46274 -6.449645,13.14547 -2.741758,2.4034 -3.010264,3.15817 -3.010264,8.46178 0,9.96259 -7.51234,21.35796 -16.921685,25.66832 -6.066714,2.77911 -6.762835,2.53964 -6.08779,-2.0943 1.410987,-9.68606 2.795652,-14.6676 5.918917,-21.29425 2.867441,-6.08386 3.345716,-8.12203 3.345716,-14.25774 0,-6.1499 -0.336771,-7.57777 -2.388965,-10.12881 -1.482531,-1.8429 -2.657013,-4.90977 -3.095421,-8.08292 -0.893927,-6.47029 -4.794497,-11.20823 -14.195457,-17.24293 -6.670304,-4.28183 -14.682249,-13.51211 -14.682249,-16.91492 0,-1.09395 -0.845684,-1.24236 -4.172539,-0.73221 -6.326493,0.97013 -11.697429,3.51199 -15.033855,7.11496 -4.233394,4.57159 -11.0541047,19.75782 -11.6598467,25.96052 -2.9028091,29.72425 -2.904646,30.57265 -0.08596,39.52095 1.93413,6.14008 2.83435,11.60993 3.370422,20.47894 0.402284,6.65566 1.2813487,13.0712 1.9534657,14.25677 0.672127,1.18555 4.23161,4.00147 7.909975,6.2576 3.678356,2.25612 6.94396,4.73466 7.256894,5.50785 0.637304,1.57468 3.799584,1.29449 11.629147,-1.03035 3.82639,-1.13617 4.655419,-1.7899 4.908869,-3.87084 0.239265,-1.96448 0.827623,-2.5038 2.731493,-2.5038 2.073323,0 2.834948,0.93122 5.232201,6.39731 1.543114,3.51851 3.455421,9.35199 4.249583,12.96329 0.93884,4.26918 2.166136,7.15986 3.508543,8.26375 2.488729,2.04653 2.170679,2.03585 8.398682,0.28224 z m 25.462626,-2.98834 c -0.248923,-0.9057 -0.468958,-0.39005 -0.488962,1.14587 -0.02004,1.53592 0.183648,2.27694 0.452584,1.64672 0.268928,-0.63022 0.285294,-1.88688 0.03639,-2.79259 z m -51.468488,1.00071 c -0.664691,-0.25498 -1.990082,-0.2705 -2.945321,-0.0345 -0.955231,0.23601 -0.41139,0.44463 1.208531,0.4636 1.619931,0.0189 2.40149,-0.17412 1.73679,-0.42912 z m -5.688204,-1.28844 c -0.40943,-0.62812 0.262397,-0.75556 1.912764,-0.36282 1.661186,0.39531 3.436191,0.051 5.115597,-0.99233 2.457326,-1.52662 2.550086,-1.88467 2.084968,-8.04818 -0.267723,-3.54775 -0.741586,-6.69208 -1.053026,-6.98737 -0.311441,-0.29528 -2.656997,0.13856 -5.212338,0.9641 -2.555351,0.82554 -5.640928,1.50098 -6.856852,1.50098 h -2.210766 l 2.38566,5.56668 c 2.738436,6.38983 2.836416,6.8943 1.158434,5.96402 -0.674965,-0.37421 -0.385594,0.2294 0.643052,1.34135 1.95591,2.11431 3.115882,2.71559 2.032507,1.05357 z m 54.195199,-4.44549 -2.648497,-2.62108 2.464814,-2.1955 c 1.528727,-1.36168 2.408952,-3.10606 2.317712,-4.59309 l -0.147094,-2.39761 -0.397344,2.44531 c -0.218532,1.34492 -1.482399,3.41181 -2.808599,4.5931 l -2.411263,2.14779 2.648497,2.62108 c 1.456665,1.44158 2.869393,2.62107 3.139376,2.62107 0.269991,0 -0.700937,-1.17949 -2.157602,-2.62107 z m -43.21204,-1.33509 c -0.272355,-0.63997 -0.495193,-0.11636 -0.495193,1.16358 0,1.27993 0.222838,1.80354 0.495193,1.16358 0.272356,-0.63998 0.272356,-1.68719 0,-2.32716 z m 0.02654,-6.0506 c -0.246946,-0.89595 -0.448989,-0.1629 -0.448989,1.62901 0,1.7919 0.202043,2.52496 0.448989,1.62901 0.246938,-0.89595 0.246938,-2.36207 0,-3.25802 z m 41.994605,0.73565 c 2.008759,-2.10454 1.543263,-4.87855 -1.412104,-8.41525 l -1.944642,-2.32716 -0.0218,6.28332 c -0.02312,6.64151 0.560426,7.41162 3.378569,4.45909 z m -42.982487,-5.79721 c -0.313401,-0.74257 -0.546047,-0.52201 -0.593157,0.5624 -0.04263,0.98127 0.189414,1.53107 0.515655,1.22176 0.326233,-0.30933 0.361108,-1.1122 0.07752,-1.78416 z m 22.794937,-31.89262 c 7.371056,-3.61404 13.0274,-13.03836 13.871651,-23.11224 0.56258,-6.71281 0.865328,-7.4924 4.157114,-10.70491 5.774513,-5.63545 7.096714,-11.54675 4.102464,-18.34138 -1.847884,-4.19326 -1.278818,-7.2753 2.744245,-14.86271 3.624645,-6.83601 3.351645,-10.70728 -1.696422,-24.05597 -1.895625,-5.012618 -3.446588,-9.934548 -3.446588,-10.937618 0,-1.93186 -1.436555,-2.45446 -2.454435,-0.89289 -1.109452,1.70203 -6.243506,1.05299 -7.363303,-0.93086 -0.642868,-1.13891 -2.055657,-1.86172 -3.638893,-1.86172 -3.220481,0 -6.178854,-2.43517 -6.178854,-5.0861 0,-2.72796 -1.947051,-4.93585 -4.957842,-5.62202 -2.025827,-0.4617 -2.770357,-0.0976 -3.902749,1.90857 -1.270416,2.2507 -1.784005,2.42911 -5.574465,1.93651 l -4.175114,-0.54258 0.558659,3.93552 c 0.789496,5.56167 -2.754704,14.416298 -6.087834,15.209478 -1.32003,0.31412 -3.274463,0.35433 -4.343187,0.0893 -1.674168,-0.4151 -1.857736,-0.13969 -1.326235,1.98978 1.928031,7.72472 6.845557,14.38994 13.954136,18.91347 5.929719,3.77335 12.699295,9.89035 14.46072,13.06672 0.766653,1.3825 1.393911,3.94209 1.393911,5.68797 0,1.96462 1.02891,4.55415 2.699878,6.79497 2.550666,3.42052 2.694772,4.16085 2.607285,13.39469 -0.08455,8.92582 -0.349734,10.25874 -3.055475,15.35921 -2.680014,5.05196 -4.31791,10.25948 -5.489571,17.45363 -0.484656,2.97579 -0.469864,2.9815 3.140904,1.21114 z M 66.35618,125.14451 c -3.450842,-6.67125 -2.79959,-8.02021 3.87197,-8.02021 4.548298,0 5.622603,-0.37182 8.068697,-2.79259 3.879819,-3.83965 5.608171,-3.53825 8.149441,1.4212 3.432421,6.69857 3.044603,7.88742 -2.572963,7.88742 -3.989015,0 -5.362587,0.51165 -8.746598,3.25801 -2.207945,1.79191 -4.501249,3.25802 -5.096252,3.25802 -0.595002,0 -2.248427,-2.25534 -3.674295,-5.01185 z m 8.013572,-1.50418 c 2.278046,-2.25447 3.634665,-2.79259 7.040208,-2.79259 h 4.218418 l -1.643942,-3.26861 -1.643951,-3.26862 -3.050333,2.80319 c -2.510157,2.30677 -3.86508,2.80318 -7.651137,2.80318 h -4.600803 l 1.638607,3.25802 c 0.901239,1.7919 1.915937,3.25801 2.25487,3.25801 0.338941,0 1.886072,-1.25666 3.438063,-2.79258 z m 21.778801,-11.34488 c -0.3134,-0.74257 -0.54604,-0.52201 -0.59315,0.5624 -0.0426,0.98128 0.1894,1.53107 0.51564,1.22176 0.32625,-0.30933 0.36111,-1.1122 0.0774,-1.78416 z M 91.132987,98.891232 c -0.774061,-2.0032 -1.438515,-3.18107 -1.476563,-2.6175 -0.09612,1.42409 2.035627,7.063998 2.502678,6.621178 0.209698,-0.19883 -0.252053,-2.00049 -1.026115,-4.003678 z m -45.229148,-5.98506 c 0.872192,-2.48974 1.448649,-6.25031 1.281024,-8.35682 l -0.304769,-3.83003 -5.6452,4.77947 c -4.648203,3.93537 -5.641271,5.30062 -5.62291,7.73032 0.01802,2.38234 0.632725,3.24185 3.190765,4.46133 3.941799,1.87914 5.021685,1.15159 7.10109,-4.78427 z m 43.351857,-1.14781 c -0.272356,-0.63997 -0.495194,-0.11636 -0.495194,1.16358 0,1.27993 0.222838,1.80354 0.495194,1.16357 0.272355,-0.63996 0.272355,-1.68718 0,-2.32715 z m -4.409167,-3.16957 c 4.113573,-3.52968 1.025306,-6.57718 -10.722203,-10.58067 -4.546751,-1.5495 -6.136095,-2.54105 -6.136095,-3.82814 0,-0.95535 0.4418,-1.73699 0.981773,-1.73699 0.539983,0 0.981774,-0.868557 0.981774,-1.930121 0,-1.826641 0.452681,-1.913974 8.443682,-1.629008 l 8.443691,0.30111 -0.681847,-3.723446 C 85.782292,63.413632 85.153768,55.245324 84.760598,47.30973 84.036467,32.694517 83.442309,29.623365 81.338892,29.623365 c -1.069506,0 -4.900994,4.40541 -10.222492,11.753744 -2.036216,2.811775 -2.399987,2.925948 -10.717598,3.363871 -6.484441,0.341405 -10.010307,1.059099 -14.283032,2.907322 -8.502384,3.677814 -11.089665,3.337434 -19.016234,-2.501765 -7.351878,-5.415851 -9.79043,-6.609198 -10.68891,-5.23081 -0.953227,1.462362 2.112329,10.112785 6.301444,17.781529 2.142009,3.921231 4.204847,9.157327 4.584086,11.635767 0.37924,2.478441 0.836219,4.752939 1.015507,5.054429 0.179288,0.3015 3.105133,-0.004 6.501878,-0.67874 7.565927,-1.50307 9.612118,-1.5602 9.612118,-0.26837 0,1.64127 2.484625,3.49725 6.949242,5.191 4.00262,1.51848 4.263066,1.51606 5.257962,-0.0489 3.069186,-4.82764 2.865736,-4.7575 8.002242,-2.75884 4.32096,1.68132 4.858886,2.23366 5.819847,5.97578 0.980798,3.81939 1.336571,4.16604 4.827746,4.70408 2.072901,0.31947 4.173286,1.26597 4.667539,2.10335 1.14235,1.93542 2.626024,1.92995 4.896292,-0.0181 z M 35.168927,65.395037 c -2.853915,-2.705921 -1.283107,-6.91497 2.580663,-6.91497 1.245692,0 1.767191,0.709639 1.767191,2.404725 0,1.512009 0.45559,2.259385 1.227226,2.01322 0.688676,-0.219703 1.088675,-1.479202 0.911506,-2.870156 -0.206974,-1.625008 0.148051,-2.47865 1.030869,-2.47865 3.686556,0 4.95241,5.155268 1.907412,7.768049 -2.271341,1.94894 -7.406669,1.991321 -9.424867,0.07778 z m 26.19233,-3.808016 c -2.021309,-0.773322 -1.513116,-6.619823 0.671793,-7.72851 3.084056,-1.564942 4.154617,-1.139954 3.816458,1.515038 -0.188253,1.477964 0.221555,2.649922 1.015067,2.902885 1.018987,0.32484 1.173226,-0.255886 0.658327,-2.47865 -0.605821,-2.615254 -0.440982,-2.902885 1.66363,-2.902885 4.591047,0 6.375008,4.783663 2.896937,7.768049 -1.709534,1.46688 -7.907276,2.00102 -10.722212,0.924073 z M 34.607912,81.220672 c 0,-0.25599 -0.883591,-0.0171 -1.963547,0.53093 -1.079948,0.548 -1.963548,1.20581 -1.963548,1.46179 0,0.25599 0.8836,0.0171 1.963548,-0.53093 1.079956,-0.548 1.963547,-1.20581 1.963547,-1.46179 z M 76.333317,70.581265 c 1.645471,-0.670415 1.446671,-0.810609 -1.227218,-0.865436 -1.754921,-0.03599 -3.190764,0.353462 -3.190764,0.865436 0,1.105094 1.705632,1.105094 4.417982,0 z"
       id="path963" />
    <path
       style="fill:none;stroke:#000000;stroke-width:1.02408;stroke-opacity:1"
       d="m 164.30191,273.57111 c -1.40071,-1.21404 -2.68131,-4.39317 -3.66093,-9.08836 -1.96405,-9.41353 -6.91213,-21.2925 -8.86919,-21.2925 -0.98351,0 -1.4481,0.92292 -1.33659,2.65518 0.15142,2.35234 -0.43277,2.83917 -5.12208,4.26838 -9.15856,2.79137 -13.90358,3.22197 -14.63094,1.32775 -0.3492,-0.90943 -3.77519,-3.68362 -7.61332,-6.16486 -3.83813,-2.48126 -7.55221,-5.57817 -8.25352,-6.88203 -0.70132,-1.30386 -1.61855,-8.35958 -2.03831,-15.67938 -0.56044,-9.77311 -1.49628,-15.75645 -3.52264,-22.52246 -2.43933,-8.14491 -2.67936,-10.22316 -2.06911,-17.91558 0.37968,-4.78602 1.085,-14.08809 1.5674,-20.67127 0.79608,-10.86423 1.28096,-12.88978 5.2514,-21.93711 6.49903,-14.80916 11.57717,-19.48566 23.1989,-21.36402 3.82172,-0.61768 4.36496,-1.03672 4.44537,-3.429 0.0664,-1.97503 0.47058,-1.34588 1.46822,2.2853 2.12393,7.73069 7.86281,15.17547 15.87921,20.59929 9.74035,6.59025 13.8107,11.81316 14.74174,18.91598 0.45745,3.48978 1.68294,6.86269 3.22986,8.88948 2.20529,2.8894 2.49263,4.30684 2.49192,12.29212 -7.1e-4,7.87977 -0.38668,9.84121 -3.03907,15.44421 -1.67104,3.52998 -3.50935,8.16649 -4.08512,10.30336 -0.93183,3.45828 -3.01212,16.55033 -2.62981,16.55033 0.0827,0 2.05865,-0.92144 4.39115,-2.04765 9.81802,-4.74046 17.65665,-17.27294 17.65665,-28.22965 0,-5.83284 0.28016,-6.66292 3.141,-9.30615 4.177,-3.85926 5.82719,-7.16941 6.6448,-13.32882 0.51162,-3.85418 0.24612,-5.95315 -1.07618,-8.50854 -2.14537,-4.14601 -1.61747,-8.26114 1.97732,-15.41353 1.44675,-2.87854 2.70404,-6.00206 2.79396,-6.94115 0.09,-0.93909 0.49031,3.36011 0.88976,9.55378 1.08286,16.79116 -0.26082,26.18586 -6.29288,43.99837 -7.37537,21.77926 -8.19821,26.94744 -8.54825,53.69066 -0.27554,21.05122 -0.45969,23.07352 -2.21994,24.37882 -1.05571,0.78288 -3.18171,1.24447 -4.72444,1.02579 -2.028,-0.28747 -2.96751,0.11409 -3.39167,1.44964 -0.36076,1.1359 -2.6067,2.44672 -5.83238,3.40402 -6.74457,2.00162 -8.19273,1.96005 -10.81229,-0.3104 z m 10.55901,-136.31768 -2.60623,-5.13981 h 5.35225 c 4.7696,0 5.7662,-0.40397 9.15497,-3.71084 l 3.80272,-3.71086 2.66032,5.24647 2.66031,5.24647 h -4.96076 c -4.01659,0 -5.43343,0.505 -7.44426,2.65337 -4.81437,5.14367 -5.74666,5.08042 -8.61932,-0.5848 z m 30.37132,-6.16356 c 0,-1.40765 0.23252,-1.98352 0.51671,-1.27969 0.28417,0.70383 0.28417,1.85554 0,2.55937 -0.28419,0.70383 -0.51671,0.12797 -0.51671,-1.27968 z M 144.8843,110.06701 c -1.2687,-0.89001 -2.76691,-1.334 -3.32935,-0.98661 -0.57543,0.3554 -1.02261,-0.47742 -1.02261,-1.90446 0,-1.39483 -0.29909,-3.31495 -0.66464,-4.26693 -0.48458,-1.26199 1.3886,-3.681077 6.9148,-8.929954 5.18686,-4.926561 6.5012,-6.587966 4.16369,-5.263151 -1.87865,1.064757 -5.41333,4.063866 -7.85481,6.664688 -3.72417,3.967207 -4.51874,4.424292 -4.93378,2.838185 -0.47417,-1.812017 4.92998,-6.561918 11.40708,-10.026095 1.22992,-0.657807 2.23622,-1.667678 2.23622,-2.24416 0,-0.576481 -0.46099,-0.763427 -1.02441,-0.415436 -0.9213,0.56902 -1.46815,-0.774701 -1.14573,-2.815307 0.16064,-1.016699 -0.24328,-0.980403 -8.46788,0.760923 -3.8789,0.821249 -7.39079,1.284276 -7.80419,1.028949 -0.41339,-0.255327 -1.05504,-2.749958 -1.42587,-5.543624 -0.37721,-2.841695 -2.6649,-9.010048 -5.19288,-14.001664 -4.76463,-9.408014 -7.32658,-17.772005 -6.27919,-20.499678 1.00124,-2.60749 5.21492,-0.910911 13.15223,5.295557 4.06267,3.17675 8.17273,5.574283 9.55592,5.574283 1.3349,0 5.09091,-1.214499 8.34669,-2.698888 4.46369,-2.035106 8.13609,-2.821835 14.93172,-3.198785 l 9.01214,-0.499896 3.92971,-5.75901 c 4.61099,-6.757418 8.77162,-11.389622 10.23015,-11.389622 2.53332,0 3.66006,5.29951 4.35323,20.474958 0.39865,8.727451 1.03531,18.206784 1.41478,21.065184 l 0.68995,5.197095 -9.07689,-0.287346 -9.0769,-0.287345 8.40235,1.269002 c 4.6213,0.697953 8.73176,1.598199 9.13438,2.00055 1.67439,1.673311 -0.7695,1.794367 -5.84084,0.28932 -6.18512,-1.835586 -12.67638,-2.207149 -10.15925,-0.581522 1.24257,0.802491 1.09554,0.995396 -0.76833,1.008072 -4.14723,0.0282 -2.42651,1.745159 4.09767,4.088639 9.76901,3.509029 13.0613,5.818081 13.0613,9.160588 0,5.01204 -6.1285,8.56294 -8.6268,4.99843 -0.87342,-1.246162 -3.13691,-2.421164 -5.3596,-2.782217 -3.54128,-0.575242 -3.93515,-0.984173 -4.94662,-5.135677 -0.96024,-3.941221 -1.64461,-4.742249 -5.42103,-6.345054 l -4.32206,-1.834387 -1.5331,2.96275 c -2.111,4.07957 -3.05768,4.447368 -6.65806,2.586749 -3.69125,-1.907571 -3.80177,-1.725352 -4.34323,7.160199 -0.40525,6.650637 -3.44527,14.163347 -5.9126,14.611697 -0.84515,0.15358 -2.57466,-0.44897 -3.84336,-1.339 z m 5.04321,-38.001314 c 2.25836,-2.04246 2.38244,-3.775286 0.38874,-5.428836 -1.24208,-1.030167 -1.4513,-0.758113 -1.28052,1.665167 0.1621,2.300168 -0.27042,2.964079 -2.1008,3.22469 -2.19724,0.312846 -2.78049,-0.581919 -2.38141,-3.653281 0.2108,-1.622238 -1.19404,-1.647994 -2.79189,-0.05119 -1.62007,1.619014 -1.55158,2.398169 0.38049,4.328991 2.08774,2.086372 5.42443,2.049708 7.78539,-0.08554 z m 29.07465,-5.531871 c 2.17971,-2.406962 1.11964,-5.2973 -2.18027,-5.9447 -1.58341,-0.310643 -1.692,-0.115802 -0.64084,1.149926 1.79225,2.158123 0.41569,5.03029 -2.2295,4.651853 -1.67296,-0.239344 -2.13,-0.960808 -1.98137,-3.127739 0.17076,-2.489607 -0.0374,-2.693315 -1.79273,-1.754499 -2.21741,1.185949 -2.70506,5.648211 -0.70539,6.454573 3.13242,1.263137 7.71412,0.575933 9.5301,-1.429414 z m -43.53773,26.778543 c -0.93965,-1.754623 -0.3322,-2.237879 5.78051,-4.598675 3.75679,-1.450906 6.9691,-2.499519 7.13847,-2.330249 0.16939,0.16927 -2.43185,2.238674 -5.7805,4.598674 -5.72469,4.034526 -6.15121,4.17376 -7.13848,2.33025 z m -1.47272,-4.769689 c -0.37067,-0.965343 0.68614,-1.749295 3.30996,-2.455356 4.93056,-1.326797 11.39006,-2.317959 9.37716,-1.438854 -0.84515,0.369102 -3.92297,1.715375 -6.8396,2.991717 -4.28917,1.87697 -5.40708,2.049506 -5.84752,0.902493 z m 56.73697,-0.962096 c -5.07357,-2.714984 -4.04478,-3.420266 1.56953,-1.075987 1.95389,0.815862 3.55255,1.967578 3.55255,2.55937 0,1.342474 0.34585,1.442637 -5.12208,-1.483383 z m 0.51221,-3.189524 c -4.06966,-1.429379 -4.07339,-1.43551 -0.54423,-0.897208 1.95439,0.298102 4.00578,0.994053 4.55865,1.546558 1.18671,1.185936 1.23157,1.193192 -4.01442,-0.64935 z m -7.93922,-2.09535 c 0.70428,-0.284001 1.85675,-0.284001 2.56104,0 0.70428,0.284001 0.12805,0.516364 -1.28052,0.516364 -1.40857,0 -1.98481,-0.232363 -1.28052,-0.516364 z"
       id="path114" />
  </g>
</svg>
