<?xml version="1.0" encoding="UTF-8" standalone="no"?>
<svg
   xmlns:dc="http://purl.org/dc/elements/1.1/"
   xmlns:cc="http://creativecommons.org/ns#"
   xmlns:rdf="http://www.w3.org/1999/02/22-rdf-syntax-ns#"
   xmlns:svg="http://www.w3.org/2000/svg"
   xmlns="http://www.w3.org/2000/svg"
   xmlns:sodipodi="http://sodipodi.sourceforge.net/DTD/sodipodi-0.dtd"
   xmlns:inkscape="http://www.inkscape.org/namespaces/inkscape"
   version="1.1"
   id="svg34"
   width="520.5"
   height="491.5"
   viewBox="0 0 520.5 491.5"
   sodipodi:docname="STARFORSTARRR.svg"
   inkscape:version="1.0.2 (e86c870879, 2021-01-15, custom)">
  <metadata
     id="metadata40">
    <rdf:RDF>
      <cc:Work
         rdf:about="">
        <dc:format>image/svg+xml</dc:format>
        <dc:type
           rdf:resource="http://purl.org/dc/dcmitype/StillImage" />
        <dc:title></dc:title>
      </cc:Work>
    </rdf:RDF>
  </metadata>
  <defs
     id="defs38" />
  <sodipodi:namedview
     pagecolor="#ffffff"
     bordercolor="#666666"
     borderopacity="1"
     objecttolerance="10"
     gridtolerance="10"
     guidetolerance="10"
     inkscape:pageopacity="0"
     inkscape:pageshadow="2"
     inkscape:window-width="1368"
     inkscape:window-height="850"
     id="namedview36"
     showgrid="false"
     inkscape:zoom="0.88909866"
     inkscape:cx="502.10823"
     inkscape:cy="247.39714"
     inkscape:window-x="-6"
     inkscape:window-y="-6"
     inkscape:window-maximized="1"
     inkscape:current-layer="g42" />
  <g
     inkscape:groupmode="layer"
     inkscape:label="Image"
     id="g42">
    <path
       style="fill:#000000;stroke-width:0.5"
       d="M 511.12582,245.75 V 4.4077508e-7 h 2 c 1.5116,0 2,0.19812899922492 2,0.81122199922492 0,0.64164596 0.1475,0.68882996 0.7055,0.22572096 1.1379,-0.94433496 1.3042,0.113797 0.3925,2.496643 -0.7924,2.0712893 -0.8566,18.1191256 -0.979,245.0914136 l -0.131,242.875 h -1.994 -1.994 z M 98.625798,477.56705 c 0,-0.66504 4.572372,-9.93129 11.752352,-23.81705 7.97624,-15.42567 17.90728,-34.92499 39.19663,-76.96137 2.77471,-5.47877 4.9298,-10.07652 4.78907,-10.21725 -0.29658,-0.29658 -3.98333,0.60504 -8.98805,2.19809 -1.925,0.61275 -4.10381,1.25333 -4.8418,1.4235 -0.73799,0.17018 -1.7776,0.92763 -2.31023,1.68322 -1.62092,2.29942 -9.28808,17.81873 -9.22751,18.67767 0.0312,0.44212 0.41737,1.66712 0.85822,2.72222 l 0.80154,1.91836 2.64309,-5.22222 c 1.45369,-2.87222 3.95392,-7.75426 5.55605,-10.84899 l 2.91297,-5.62676 2.51959,-0.74824 c 1.38577,-0.41153 2.7107,-0.74823 2.9443,-0.74823 0.3783,0 -15.39362,31.45812 -16.85731,33.62298 -0.54701,0.80906 -0.62622,0.79076 -1.0817,-0.25 -0.27031,-0.61764 -1.58225,-4.39046 -2.91541,-8.38404 l -2.42395,-7.26106 5.35725,-10.48894 c 2.94649,-5.76892 5.74146,-10.87539 6.21108,-11.34771 0.70668,-0.71077 6.42292,-2.64308 19.10382,-6.45783 3.45956,-1.04073 4.73761,-1.05617 5.95311,-0.0719 l 1.16801,0.9458 -6.62483,12.97136 c -3.64367,7.13425 -8.81543,17.24636 -11.49281,22.47136 -2.67739,5.225 -8.30557,16.25 -12.50707,24.5 -4.2015,8.25 -9.74449,19.11986 -12.31775,24.15526 -2.57326,5.03539 -4.67866,9.42233 -4.67866,9.74875 0,0.32642 16.87272,-16.27811 37.49494,-36.89895 l 37.49495,-37.49244 1.37043,1.37043 1.37044,1.37043 0.19254,12.03261 0.19253,12.0326 -8.68291,8.73645 c -4.77561,4.80505 -9.13292,8.84086 -9.68292,8.96847 -0.55,0.12762 -4.6589,0.062 -9.13087,-0.14579 l -8.13088,-0.37782 13.48677,-13.47744 c 7.41773,-7.41259 13.63426,-13.32995 13.81451,-13.1497 0.18026,0.18026 0.44435,1.36235 0.58688,2.62687 l 0.25915,2.29913 -8.57955,8.63047 c -4.71875,4.74675 -8.42425,8.78577 -8.23445,8.97557 0.18981,0.1898 1.36637,0.3451 2.61459,0.3451 2.25287,0 2.32167,-0.0521 9.40011,-7.125 3.92184,-3.91875 7.38203,-7.72362 7.68931,-8.45525 0.65093,-1.54991 0.01,-15.90006 -0.71467,-15.99214 -0.24151,-0.0307 -20.21026,19.71567 -44.375,43.88081 -24.16475,24.16512 -43.935902,43.63151 -43.935902,43.25861 z M 362.40729,434.02866 c -24.1825,-24.18476 -44.12215,-43.87714 -44.31032,-43.76084 -0.18817,0.11629 -0.50398,3.56793 -0.70181,7.6703 -0.26618,5.51993 -0.20038,7.76469 0.25312,8.63537 0.33704,0.64708 3.81775,4.38276 7.73491,8.30151 7.03125,7.03411 7.15052,7.125 9.34903,7.125 1.2248,0 2.38221,-0.15529 2.57202,-0.3451 0.1898,-0.1898 -3.51283,-4.22592 -8.22807,-8.96915 l -8.57317,-8.62405 0.35817,-2.40585 c 0.19699,-1.32322 0.45822,-2.50819 0.5805,-2.63328 0.12228,-0.12509 6.292,5.83741 13.71049,13.25 l 13.48816,13.47743 -3.88226,0.26556 c -2.13525,0.14606 -6.1929,0.25856 -9.01701,0.25 l -5.13475,-0.0156 -8.79287,-8.83142 -8.79288,-8.83141 0.17763,-12.03239 0.17762,-12.03238 1.38006,-1.37989 1.38006,-1.37989 37.49494,37.49244 c 20.62221,20.62088 37.49494,37.23059 37.49494,36.91051 0,-0.5519 -4.89748,-10.32881 -16.98908,-33.91553 -2.96052,-5.775 -8.08346,-15.7875 -11.3843,-22.25 -3.30084,-6.4625 -8.98265,-17.58653 -12.62624,-24.72006 l -6.6247,-12.97006 1.11755,-0.90494 c 1.52336,-1.23354 2.27014,-1.1626 8.41705,0.79957 7.53182,2.40424 11.51089,3.62143 13.95119,4.26763 2.76966,0.73341 3.43996,1.69859 9.39245,13.52418 l 4.90586,9.74632 -2.59721,7.75368 c -1.42846,4.26453 -2.77527,8.04112 -2.9929,8.39244 -0.42587,0.68746 -0.52977,0.49818 -11.53558,-21.01376 -3.62286,-7.08125 -6.39095,-12.875 -6.15131,-12.875 0.23965,0 1.57171,0.33735 2.96016,0.74968 l 2.52444,0.74968 3.16568,6.12532 c 1.74112,3.36892 4.17371,8.09407 5.40574,10.50032 1.23204,2.40625 2.40367,4.375 2.60363,4.375 0.19996,0 0.69819,-0.98206 1.10717,-2.18235 l 0.7436,-2.18234 -4.2606,-8.44266 c -5.32825,-10.55826 -5.66352,-11.03244 -8.28275,-11.71433 -1.15492,-0.30067 -4.46235,-1.29732 -7.34985,-2.21477 -2.8875,-0.91746 -5.41882,-1.50952 -5.62514,-1.31568 -0.20633,0.19383 2.34621,5.74111 5.67231,12.32727 14.84857,29.40231 29.30242,57.77866 38.95346,76.47486 7.59844,14.71991 11.06614,21.79966 10.90874,22.27175 -0.088,0.26355 -19.94537,-19.30834 -44.12788,-43.49309 z M 133.52351,426.4136 c 2.73692,-5.31498 8.18408,-15.9636 12.1048,-23.6636 3.92071,-7.7 9.20768,-18.05 11.74883,-23 2.54115,-4.95 7.93952,-15.525 11.99638,-23.5 4.05686,-7.975 9.56887,-18.775 12.24889,-24 2.68002,-5.225 8.53691,-16.7 13.01531,-25.5 4.4784,-8.8 9.18901,-18.025 10.46802,-20.5 1.27901,-2.475 2.47299,-4.88931 2.65329,-5.36513 0.27064,-0.71426 -1.08578,-1.57511 -7.77771,-4.93614 -4.45804,-2.23906 -13.73052,-6.9383 -20.60552,-10.44276 -24.60142,-12.54031 -51.61654,-26.2822 -87.500002,-44.50897 -18.83228,-9.56573 -35.94682,-18.31697 -38.5,-19.68633 -1.73976,-0.9331 -0.94808,-1.03637 2.60039,-0.33924 1.31978,0.25929 6.89961,1.16608 12.39961,2.01509 9.55503,1.47496 12.14515,1.89329 18.625,3.00811 1.58125,0.27204 5.2375,0.84247 8.125,1.26763 4.938902,0.7272 6.823222,1.02941 13.875002,2.22531 1.58125,0.26815 5.2375,0.83625 8.125,1.26243 2.8875,0.42618 6.4875,0.99064 8,1.25434 1.5125,0.26371 5,0.82137 7.75,1.23925 2.75,0.41788 6.2375,0.97526 7.75,1.23862 1.5125,0.26336 4.2125,0.70164 6,0.97397 5.82522,0.88746 13.19097,2.06116 16,2.54953 1.5125,0.26295 5,0.82188 7.75,1.24206 5.54382,0.84704 9.9779,1.55068 14.5,2.30097 5.79748,0.9619 15.53122,2.52003 18.5,2.9614 1.65,0.2453 4.35,0.66687 6,0.93681 1.65,0.26994 5.1375,0.82965 7.75,1.2438 2.6125,0.41415 5.4582,0.90167 6.32379,1.08338 1.9187,0.4028 1.34758,2.67079 4.66471,-18.52413 0.25823,-1.65 0.81455,-5.1375 1.23625,-7.75 0.42171,-2.6125 0.99266,-6.2125 1.26879,-8 0.27613,-1.7875 1.07004,-6.85 1.76425,-11.25 0.6942,-4.4 1.47463,-9.35 1.73427,-11 0.25965,-1.65 0.82861,-5.25 1.26436,-8 0.43576,-2.75 1.01509,-6.4625 1.2874,-8.25 0.27233,-1.7875 0.70577,-4.4875 0.96322,-6 0.25745,-1.5125 0.81678,-5.1125 1.24296,-8 0.42618,-2.8875 0.99063,-6.4875 1.25434,-8 0.26371,-1.5125 0.82325,-5 1.24343,-7.75 0.42017,-2.75 0.98289,-6.35 1.25048,-8 0.2676,-1.65 1.05749,-6.7125 1.75532,-11.25 0.69783,-4.5375 1.47999,-9.487499 1.73813,-11 0.25814,-1.5125 0.69403,-4.2125 0.96865,-6 0.27463,-1.7875 0.75412,-4.825 1.06556,-6.75 0.84603,-5.229435 1.30419,-8.181755 2.66485,-17.17213 0.68025,-4.49467 1.36562,-8.30092 1.52303,-8.45833 0.61044,-0.61044 0.89952,0.556415 2.09545,8.45833 0.68025,4.49467 1.43459,9.40963 1.67631,10.92213 0.24172,1.5125 0.81072,5.1125 1.26445,8 0.45373,2.8875 1.02508,6.4875 1.26966,8 0.24458,1.5125 0.67689,4.325001 0.96066,6.250001 0.28378,1.924999 0.95832,6.199999 1.49897,9.499999 0.54065,3.3 1.33162,8.25 1.75771,11 1.22663,7.91661 1.76719,11.29891 2.27745,14.25 0.26153,1.5125 1.04421,6.575 1.7393,11.25 0.69509,4.675 1.4841,9.7375 1.75334,11.25 0.26925,1.5125 0.8333,5 1.25346,7.75 1.10404,7.22601 1.60091,10.40184 2.46421,15.75 0.4217,2.6125 1.00774,6.325 1.30231,8.25 0.29457,1.925 0.74145,4.7375 0.99308,6.25 0.4584,2.75539 2.34849,14.87313 3.78244,24.25 0.42055,2.75 0.99543,6.20519 1.27751,7.6782 0.51167,2.67182 0.51665,2.6774 2.0914,2.34072 0.86817,-0.18561 2.816,-0.53305 4.3285,-0.77208 6.92194,-1.0939 12.99843,-2.04918 15.75,-2.47604 4.60872,-0.71497 15.15179,-2.41522 18.5,-2.98343 1.65,-0.28002 5.25,-0.85562 8,-1.27911 6.74607,-1.03886 10.95769,-1.7063 14.25,-2.25826 3.01874,-0.50609 4.74436,-0.78219 18.75,-3 14.47555,-2.29221 15.78921,-2.50298 18.75,-3.0083 1.5125,-0.25814 6.4625,-1.0403 11,-1.73813 4.5375,-0.69783 9.59997,-1.48791 11.24997,-1.75574 1.65,-0.26783 6.6,-1.05613 11,-1.75179 4.4,-0.69565 9.35,-1.4853 11,-1.75477 17.30455,-2.82609 27.82085,-4.49073 28.35415,-4.48819 0.3552,10e-4 -0.029,0.36348 -0.8541,0.80397 -2.4539,1.31021 -21.28915,10.93561 -40.00005,20.44131 -27.27717,13.85765 -65.33722,33.21463 -87.49997,44.50167 -7.15,3.64135 -16.19712,8.2341 -20.10472,10.2061 -6.60274,3.33214 -7.07449,3.66348 -6.67697,4.68967 0.23527,0.60731 1.76676,3.6917 3.40332,6.8542 1.63656,3.1625 6.18932,12.05 10.11723,19.75 3.92792,7.7 9.44571,18.5 12.26176,24 2.81605,5.5 8.44264,16.525 12.50353,24.5 4.0609,7.975 9.68566,19 12.49947,24.5 5.15259,10.0715 14.57652,28.53685 23.4145,45.87863 2.99783,5.8823 4.44946,9.20189 3.8939,8.90456 -0.48719,-0.26073 -28.22862,-27.93737 -61.64764,-61.50363 C 280.62117,340.4633 252.9801,313 252.61559,313 c -0.36451,0 -28.00098,27.4633 -61.41439,61.02957 -33.4134,33.56626 -61.17965,61.25863 -61.70278,61.5386 -0.64061,0.34285 0.67349,-2.64591 4.02509,-9.15457 z m 65.55587,-66.43031 C 228.06635,330.84248 252.1619,307 252.62504,307 c 0.46314,0 24.44653,23.75513 53.29642,52.78917 28.84988,29.03404 52.84302,53.00175 53.31808,53.26157 1.12801,0.61693 0.95477,0.16962 -2.63396,-6.80074 -1.55744,-3.025 -6.38146,-12.475 -10.72005,-21 -4.33859,-8.525 -9.96737,-19.55 -12.50841,-24.5 -5.4107,-10.54018 -14.28849,-27.94635 -26.01188,-51 -4.61488,-9.075 -10.04416,-19.72684 -12.06507,-23.67076 -2.0209,-3.94392 -3.67437,-7.34735 -3.67437,-7.56319 0,-0.21583 3.65625,-2.24897 8.125,-4.5181 8.80361,-4.47026 27.4699,-13.96918 49.625,-25.25322 14.33735,-7.3023 30.22127,-15.37601 59.74997,-30.3706 9.2125,-4.67807 16.9638,-8.70101 17.225,-8.93986 0.6281,-0.57425 -0.7371,-0.55778 -3.3786,0.0408 -1.153,0.26126 -4.3464,0.81437 -7.0964,1.22914 -2.75,0.41477 -7.925,1.22033 -11.5,1.79015 -3.575,0.56983 -8.63747,1.37307 -11.24997,1.78499 -2.6125,0.41192 -6.1,0.97269 -7.75,1.24615 -1.65,0.27347 -6.6,1.05884 -11,1.74528 -4.4,0.68643 -9.35,1.46854 -11,1.73801 -1.65,0.26947 -8.625,1.38298 -15.5,2.47448 -6.875,1.09149 -13.9625,2.21758 -15.75,2.50242 -1.7875,0.28484 -6.7375,1.07078 -11,1.74654 -21.30472,3.37754 -29.80625,4.73257 -34.78686,5.54456 -2.49527,0.40681 -5.73901,0.79221 -7.20831,0.85646 L 276.45918,232.25 275.7999,228 c -0.3626,-2.3375 -0.88126,-5.6 -1.15257,-7.25 -0.27131,-1.65 -0.83978,-5.25 -1.26327,-8 -1.03886,-6.74606 -1.7063,-10.95769 -2.25826,-14.25 -0.56208,-3.35266 -1.2412,-7.64164 -2.25638,-14.25 -0.42246,-2.75 -0.98496,-6.35 -1.25,-8 -0.26504,-1.65 -0.82568,-5.25 -1.24585,-8 -0.42018,-2.75 -0.9829,-6.2375 -1.25049,-7.75 -0.26759,-1.5125 -0.83439,-5.1125 -1.25954,-8 -0.7272,-4.9389 -1.02941,-6.82322 -2.22531,-13.875 -0.26816,-1.58125 -0.83625,-5.2375 -1.26243,-8.125 -0.42618,-2.8875 -0.98551,-6.4875 -1.24296,-8 -0.53657,-3.15239 -1.16768,-7.1224 -2.2653,-14.25 -0.42349,-2.75 -0.98521,-6.35 -1.24827,-8 -0.26306,-1.649999 -0.82746,-5.25 -1.25421,-8 -0.42676,-2.75 -0.89037,-5.73125 -1.03025,-6.625 -0.32701,-2.08944 -1.09101,-2.08944 -1.41802,0 -0.13988,0.89375 -0.60349,3.875 -1.03024,6.625 -1.29473,8.34322 -1.77707,11.37493 -2.26714,14.25 -0.2578,1.5125 -0.81743,5.1125 -1.24361,8 -0.42618,2.8875 -0.98868,6.4875 -1.25,8 -0.26132,1.5125 -0.82382,5.1125 -1.25,8 -0.42618,2.8875 -0.99428,6.54375 -1.26244,8.125 -1.19589,7.05178 -1.4981,8.9361 -2.2253,13.875 -0.42516,2.8875 -0.98683,6.4875 -1.24816,8 -0.55128,3.19065 -1.19478,7.23679 -2.26634,14.25 -0.42017,2.75 -0.97971,6.2375 -1.24342,7.75 -0.26371,1.5125 -0.82816,5.1125 -1.25434,8 -0.42618,2.8875 -0.99064,6.4875 -1.25434,8 -0.44256,2.53828 -1.20898,7.42537 -2.54844,16.25 -0.29219,1.925 -0.72155,4.5125 -0.95414,5.75 -0.23259,1.2375 -0.71109,4.3565 -1.06334,6.93112 -0.41122,3.0056 -0.88421,4.77466 -1.32147,4.94245 -0.58884,0.22596 -9.41567,-0.98427 -17.35827,-2.37996 -1.375,-0.24162 -6.2125,-1.02076 -10.75,-1.73143 -4.5375,-0.71066 -11.7375,-1.85237 -16,-2.53714 -4.2625,-0.68476 -9.1,-1.45457 -10.75,-1.71069 -1.65,-0.25611 -5.25,-0.82218 -8,-1.25793 -2.75,-0.43575 -6.4625,-1.01797 -8.25,-1.29383 -1.7875,-0.27585 -4.4875,-0.71703 -6,-0.98039 -1.5125,-0.26335 -4.8875,-0.80879 -7.5,-1.21206 -4.31328,-0.66582 -16.14342,-2.54038 -23.75,-3.76333 -1.65,-0.26528 -5.1375,-0.81851 -7.75,-1.2294 -2.6125,-0.41088 -7.675,-1.21328 -11.25,-1.7831 -3.575002,-0.56982 -8.750002,-1.37816 -11.500002,-1.7963 -2.75,-0.41815 -6.10159,-0.97593 -7.44797,-1.23951 -2.61531,-0.51201 -3.21169,-0.40338 -2.18912,0.39872 0.3504,0.27485 8.51209,4.50154 18.13709,9.39266 41.775082,21.22874 71.649772,36.43151 84.000002,42.74632 5.775,2.95282 15.28125,7.78087 21.125,10.72898 5.84375,2.94812 10.625,5.53899 10.625,5.75748 0,0.2185 -1.93573,4.19303 -4.30162,8.8323 -2.36589,4.63927 -7.90837,15.52254 -12.31664,24.18504 -4.40827,8.6625 -10.48809,20.5875 -13.51071,26.5 -11.57608,22.64374 -16.98505,33.23259 -24.1361,47.25 -4.06849,7.975 -8.7801,17.2 -10.47024,20.5 -3.64156,7.11015 -3.92257,7.78309 -3.11423,7.45782 0.32975,-0.13268 24.31615,-24.08372 53.30312,-53.22453 z m -3.227,44.38598 c -0.1378,-0.35909 -0.1889,-4.69532 -0.11356,-9.63608 l 0.13698,-8.98319 9.20593,0.12259 c 5.06326,0.0674 9.28309,0.19977 9.3774,0.29407 0.0943,0.0943 0.22664,4.31415 0.29407,9.37741 l 0.1226,9.20593 -9.38645,0.13607 c -7.35986,0.1067 -9.44053,-0.005 -9.63697,-0.5168 z M 210.5258,400.4 c 0.65484,-0.65485 0.78472,-4.41276 0.27982,-8.09642 l -0.32018,-2.33599 -5.30482,0.1412 -5.30482,0.14121 -0.16484,2.25 c -0.0907,1.2375 -0.0165,3.65625 0.1648,5.375 l 0.32963,3.125 h 4.8602 c 3.1135,0 5.07584,-0.21564 5.46021,-0.6 z m -7.18677,-4.11848 c -0.50831,-2.02528 0.0494,-2.78152 2.05126,-2.78152 1.76949,0 1.79359,0.0276 1.64069,1.875 -0.1413,1.70722 -0.29906,1.88891 -1.76303,2.0304 -1.36718,0.13214 -1.6559,-0.0361 -1.92892,-1.12388 z m 86.95095,7.92514 c -0.32735,-0.85307 0.10896,-17.64647 0.4678,-18.00531 0.11339,-0.11339 4.34883,-0.26133 9.41209,-0.32876 L 309.3758,385.75 v 9.5 9.5 l -9.38644,0.13607 c -8.29638,0.12027 -9.42278,0.0414 -9.69938,-0.67941 z m 15.08586,-6.33166 c 0.1813,-1.71875 0.25545,-4.1375 0.1648,-5.375 l -0.16484,-2.25 -5.30481,-0.14121 -5.30482,-0.1412 -0.32018,2.33599 c -0.50491,3.68366 -0.37503,7.44157 0.27981,8.09642 0.38437,0.38436 2.34671,0.6 5.4602,0.6 h 4.86021 z m -6.62504,-0.70614 c -0.34375,-0.13871 -0.625,-1.02095 -0.625,-1.96053 0,-1.62194 0.0893,-1.70833 1.76569,-1.70833 1.9619,0 2.5269,0.76619 2.0287,2.75112 -0.30673,1.22215 -1.53416,1.57757 -3.16939,0.91774 z m -105.75711,-16.54581 -1.31921,-1.37695 30.29025,-30.37305 C 238.62437,332.16787 252.43453,318.5 252.65398,318.5 c 0.21945,0 14.01525,13.66875 30.65731,30.375 l 30.25831,30.375 -1.31545,1.375 -1.31544,1.375 H 298.6122 286.2857 l -8.57995,-8.72632 -8.57995,-8.72631 v -8.77369 c 0,-4.82552 0.15915,-8.77368 0.35367,-8.77368 0.66477,0 27.09736,26.67474 26.842,27.0879 -0.14008,0.22666 -1.40767,0.4121 -2.81688,0.4121 h -2.56219 l -8.30185,-8.25 c -4.56602,-4.5375 -8.45205,-8.25 -8.63564,-8.25 -0.786,0 -0.93874,3.43353 -0.21416,4.81426 0.4144,0.78965 3.88359,4.52949 7.70931,8.31074 l 6.95585,6.875 h 8.30544 c 4.56799,0 8.41013,-0.1694 8.53809,-0.37646 C 305.56775,377.18941 253.34646,324.5 252.64788,324.5 c -0.704,0 -52.96899,52.68139 -52.69877,53.11862 0.12964,0.20976 4.00042,0.38138 8.60174,0.38138 h 8.36603 l 7.03876,-7.125 c 3.87132,-3.91875 7.31393,-7.65494 7.65023,-8.30265 C 232.20446,361.4195 231.93584,358 231.24669,358 c -0.18359,0 -4.06963,3.7125 -8.63564,8.25 l -8.30185,8.25 h -2.50837 c -1.3796,0 -2.66697,-0.15861 -2.86082,-0.35246 C 208.58506,373.79258 235.04186,347 235.74732,347 c 0.20816,0 0.37848,3.95999 0.37848,8.79997 v 8.79997 l -8.59194,8.70003 L 218.94192,382 H 206.6274 194.31289 Z M 137.39963,361.875 c -0.10713,-0.34375 -1.35875,-4.17628 -2.78138,-8.51673 -1.42263,-4.34045 -2.46965,-8.1965 -2.32671,-8.569 0.14294,-0.3725 2.13288,-1.25078 4.42208,-1.95173 10.51553,-3.21984 13.01332,-3.90307 13.28303,-3.63336 0.15923,0.15923 1.58501,4.17028 3.16841,8.91344 2.06034,6.17185 2.71284,8.7279 2.29482,8.98958 -0.32124,0.2011 -2.83408,1.06778 -5.58408,1.92594 -2.75,0.85817 -6.33091,1.98928 -7.95758,2.51358 -3.46868,1.11801 -4.25467,1.17512 -4.51859,0.32828 z m 8.28496,-5.91943 c 2.58016,-0.84944 4.7716,-1.62358 4.86987,-1.72032 0.28944,-0.28497 -2.37196,-8.46657 -3.06031,-9.40795 -0.58897,-0.80546 -0.94198,-0.7595 -5.37436,0.69974 -2.6092,0.859 -4.81544,1.63203 -4.90277,1.71783 -0.16577,0.1629 2.73934,9.07647 3.20241,9.82572 0.34442,0.55729 -0.101,0.65162 5.26516,-1.11502 z m -3.21015,-3.33057 c -0.11571,-0.20625 -0.35167,-0.96742 -0.52435,-1.69148 -0.26679,-1.11864 -0.0939,-1.40765 1.15069,-1.92316 0.80557,-0.33368 1.67832,-0.47463 1.93945,-0.31325 0.80901,0.5 1.16583,2.85371 0.54587,3.60071 -0.61435,0.74026 -2.75372,0.9652 -3.11166,0.32718 z m 220.65136,8.89679 c -1.5125,-0.50898 -5,-1.6282 -7.75,-2.48718 -2.75,-0.85897 -5.26284,-1.72631 -5.58409,-1.92741 -0.41801,-0.26168 0.23449,-2.81773 2.29482,-8.98958 1.5834,-4.74316 3.00919,-8.75421 3.16842,-8.91344 0.26971,-0.2697 2.7675,0.41352 13.28303,3.63336 2.2892,0.70095 4.27638,1.57207 4.41597,1.93582 0.13958,0.36375 -0.98946,4.4448 -2.50898,9.069 -2.1526,6.55078 -2.96225,8.42941 -3.66597,8.50624 -0.49676,0.0542 -2.1407,-0.31783 -3.6532,-0.82681 z m 3.36807,-9.06133 c 0.88993,-2.59076 1.62119,-4.84587 1.625,-5.01137 0.004,-0.1655 -2.18585,-1.0147 -4.86592,-1.88711 -4.53977,-1.47778 -4.91568,-1.52765 -5.49936,-0.72941 -0.68605,0.93824 -3.34467,9.11814 -3.05645,9.40395 0.39801,0.39469 9.21472,3.18722 9.67866,3.06553 0.275,-0.0721 1.22813,-2.25084 2.11807,-4.84159 z m -6.82838,-0.16263 c -0.58674,-0.70698 -0.27868,-3.09111 0.45826,-3.54656 0.34664,-0.21424 3.50205,0.66249 3.50205,0.97303 0,0.0696 -0.24701,0.83505 -0.54892,1.70109 -0.60058,1.72285 -2.33705,2.16694 -3.41139,0.87244 z m -197.80705,5.72463 c -1.20558,-0.48656 -1.98431,-1.39892 -2.36637,-2.77246 -0.15298,-0.55 -1.76048,-5.30997 -3.57221,-10.5777 -1.81174,-5.26774 -3.29406,-9.96417 -3.29406,-10.43651 0,-0.47234 2.17873,-5.04987 4.84162,-10.1723 2.6629,-5.12242 5.08165,-9.81117 5.375,-10.41943 0.66187,-1.37237 1.45593,-1.77388 6.78338,-3.42999 2.3375,-0.72664 5.58091,-1.74707 7.20758,-2.26762 1.62666,-0.52055 3.03291,-0.94645 3.125,-0.94645 0.64721,0 -0.23213,2.27631 -2.75384,7.12874 -1.60669,3.09169 -5.35482,10.39376 -8.32918,16.22683 -2.97436,5.83306 -5.57028,10.50523 -5.76871,10.3826 -0.19843,-0.12264 -0.73292,-1.36075 -1.18777,-2.75135 l -0.82698,-2.52837 3.47521,-6.85422 c 1.91136,-3.76983 4.27476,-8.40537 5.25198,-10.3012 0.97722,-1.89583 1.67078,-3.61845 1.54125,-3.82805 -0.37967,-0.61432 -3.62725,0.59282 -4.65509,1.73031 -0.5192,0.57459 -2.92905,4.93174 -5.35521,9.68256 l -4.41121,8.63785 2.6913,7.98715 c 1.48021,4.39293 2.81935,7.98715 2.97587,7.98715 0.28323,0 3.28255,-5.69607 13.03235,-24.75 2.81433,-5.5 6.62865,-12.925 8.47628,-16.5 10.6255,-20.55944 12.64484,-24.68047 12.40274,-25.31136 -0.14719,-0.38357 -9.35175,-5.28545 -20.45459,-10.89307 -11.10284,-5.60761 -25.87895,-13.08689 -32.83579,-16.62062 C 136.27014,252.89123 130.47639,250 130.35199,250 c -0.39754,0 -0.24257,1.91355 0.25118,3.10147 0.26256,0.63169 1.28504,3.77302 2.27219,6.98073 0.98716,3.20771 2.06609,6.04628 2.39763,6.30793 1.72658,1.36264 17.83826,9.10987 18.94551,9.10987 0.71087,0 2.00553,-0.29982 2.87703,-0.66625 1.22925,-0.51686 1.43832,-0.78471 0.93241,-1.19453 -0.35868,-0.29055 -4.93786,-2.66908 -10.17597,-5.28561 -5.2381,-2.61654 -9.77112,-5.06025 -10.07336,-5.43047 -0.72693,-0.89043 -1.89039,-4.85222 -1.53062,-5.212 0.27051,-0.27052 32.70004,15.92604 33.53047,16.74641 0.38512,0.38044 -3.74566,1.94641 -12.41976,4.70831 l -4.01709,1.27907 -10.42275,-5.21506 c -5.73252,-2.86829 -10.70703,-5.45099 -11.05447,-5.73934 -0.34745,-0.28836 -1.23588,-2.48544 -1.97429,-4.88241 -0.73842,-2.39697 -1.53468,-4.92062 -1.76948,-5.60812 -2.44185,-7.14984 -3.98537,-12.7421 -3.73483,-13.53149 0.16804,-0.52943 0.64895,-1.30603 1.0687,-1.72578 0.68425,-0.68425 3.09857,0.42158 23.34225,10.69143 47.5352,24.11515 53.58531,27.19492 53.79277,27.38293 0.18934,0.17158 -11.95853,24.46427 -15.46839,30.93291 -0.74607,1.375 -5.70596,11.05 -11.02197,21.5 -12.39857,24.37259 -12.14692,23.89708 -12.72865,24.05162 -0.27209,0.0723 -0.95251,-0.0533 -1.51206,-0.27916 z m 178.9202,-1.13228 c -0.53012,-0.9021 -2.61225,-4.90268 -4.62697,-8.89018 -2.01471,-3.9875 -5.68616,-11.1875 -8.15877,-16 -20.35228,-39.61211 -25.57795,-49.95833 -25.33804,-50.16637 0.23318,-0.2022 16.96548,-8.72627 51.72094,-26.34861 11.55,-5.85629 21.75441,-11.04523 22.67647,-11.53097 2.01364,-1.06079 2.79294,-0.83854 3.56092,1.01552 0.49652,1.1987 0.32022,2.20808 -1.23818,7.08907 -0.99942,3.13025 -2.01286,6.25386 -2.25207,6.94136 -0.23923,0.6875 -1.00988,3.1899 -1.71256,5.56089 -0.70269,2.37099 -1.58519,4.56615 -1.96112,4.87815 -0.37593,0.31199 -5.37513,2.91625 -11.10933,5.78724 l -10.42584,5.21998 -4.01914,-1.26805 c -2.21053,-0.69744 -5.90495,-1.92284 -8.20983,-2.72313 -2.30487,-0.8003 -4.31862,-1.45508 -4.475,-1.45508 -0.96233,0 2.42267,-1.83469 17.08583,-9.26062 9.03109,-4.57365 16.54839,-8.18751 16.70511,-8.03078 0.35506,0.35506 -0.79242,4.31324 -1.50291,5.18421 -0.2884,0.35355 -4.82142,2.79862 -10.07336,5.43348 -5.25195,2.63487 -9.84246,5.02704 -10.20113,5.31593 -0.50507,0.40681 -0.29478,0.67554 0.9324,1.19153 0.8715,0.36643 2.14284,0.66625 2.82521,0.66625 1.0849,0 17.38695,-7.81237 19.00114,-9.10584 0.33363,-0.26734 1.417,-3.10915 2.40747,-6.31512 0.99048,-3.20597 2.01125,-6.34588 2.26839,-6.97757 0.66386,-1.63085 0.57928,-2.60147 -0.22669,-2.60147 -0.38182,0 -6.17557,2.77569 -12.875,6.16821 -6.69943,3.39252 -21.26423,10.75748 -32.36621,16.36659 -11.10199,5.60911 -20.30163,10.50118 -20.44365,10.87127 -0.23315,0.60757 3.02592,7.27039 12.88592,26.34393 4.15272,8.03316 9.8747,19.15032 16.01999,31.125 2.57558,5.01875 4.81667,9.125 4.9802,9.125 0.16354,0 1.5036,-3.5799 2.97791,-7.95533 l 2.68058,-7.95532 -4.3929,-8.66968 c -2.4161,-4.76832 -4.82112,-9.13979 -5.34449,-9.71438 -1.03275,-1.13382 -4.28305,-2.34454 -4.6594,-1.73561 -0.12773,0.20668 2.1284,5.0176 5.01363,10.69093 l 5.24588,10.31515 -0.82416,2.51972 c -0.45329,1.38584 -0.99196,2.62342 -1.19705,2.75017 -0.20509,0.12675 -3.02207,-4.99542 -6.25996,-11.3826 -3.23789,-6.38718 -7.09874,-13.90252 -8.57967,-16.70076 -1.48093,-2.79823 -2.493,-5.21106 -2.24905,-5.36183 0.35892,-0.22183 5.48051,1.25229 14.33165,4.12498 1.48574,0.48221 2.43448,1.20537 3.04968,2.32456 3.39635,6.17874 10.20032,19.80865 10.20032,20.43356 0,0.44362 -1.48466,5.14005 -3.29924,10.43651 -1.81458,5.29646 -3.41324,10.12271 -3.55257,10.72501 -0.29614,1.28012 -1.46031,2.4035 -2.96485,2.86095 -0.84522,0.25699 -1.26675,-0.0162 -2.0305,-1.31585 z M 107.84309,271.24882 c -0.39451,-0.94418 -0.71729,-1.8874 -0.71729,-2.09604 0,-0.49611 -3.40949,-11.57495 -4.00377,-13.00993 -0.30872,-0.74543 -0.27187,-1.22249 0.11277,-1.46022 1.45203,-0.8974 17.44184,-6.00488 17.66563,-5.64277 0.13913,0.22511 0.94386,2.61448 1.78829,5.30972 0.84444,2.69523 2.08397,6.56094 2.75451,8.59046 0.67054,2.02952 1.0992,3.81 0.95257,3.95663 -0.27736,0.27736 -11.22774,4.06728 -15.42771,5.33952 l -2.40772,0.72934 z m 8.57778,-5.12947 c 2.17521,-0.75936 4.21928,-1.54969 4.54237,-1.75629 0.4299,-0.27491 0.19265,-1.54727 -0.88466,-4.74436 -0.80965,-2.40278 -1.64899,-4.64868 -1.86519,-4.99087 -0.30069,-0.4759 -1.5032,-0.25363 -5.11534,0.94554 -2.59724,0.86224 -4.81766,1.65012 -4.93427,1.75085 -0.45624,0.39412 3.07279,10.17578 3.67122,10.17578 0.34701,0 2.41065,-0.62129 4.58587,-1.38065 z m -3.47459,-4.64197 c -0.46516,-2.3258 -0.4664,-2.3232 1.27138,-2.67075 1.04188,-0.20838 1.73023,-0.10041 1.99234,0.3125 0.6314,0.99462 0.48408,3.38012 -0.2092,3.38769 -0.34375,0.004 -1.09954,0.13421 -1.67952,0.28989 -0.8741,0.23463 -1.10936,0.009 -1.375,-1.31933 z m 274.55114,8.56143 c -4.6081,-1.58339 -8.49759,-2.99811 -8.6433,-3.14382 -0.1457,-0.14571 0.28371,-1.92544 0.95425,-3.95496 0.67054,-2.02952 1.91007,-5.89522 2.7545,-8.59046 0.84444,-2.69523 1.64917,-5.08461 1.78829,-5.30971 0.2238,-0.36211 16.21361,4.74537 17.66561,5.64277 0.3847,0.23773 0.4215,0.71479 0.1128,1.46022 -0.2522,0.60893 -1.2727,3.80715 -2.2679,7.10715 -2.2341,7.40844 -2.98293,9.42736 -3.54671,9.56247 -0.24154,0.0579 -4.20943,-1.19026 -8.81754,-2.77366 z m 8.19647,-7.5215 c 0.89826,-2.74047 1.53168,-5.07123 1.40756,-5.17946 -0.12411,-0.10823 -2.34152,-0.89918 -4.92759,-1.75767 -4.40658,-1.46284 -4.74321,-1.50653 -5.35909,-0.69553 -0.36144,0.47594 -0.66432,1.09825 -0.67307,1.3829 -0.009,0.28466 -0.54919,2.14568 -1.20099,4.13561 -0.83886,2.56101 -1.02146,3.72321 -0.625,3.97799 0.92744,0.59602 7.99738,3.04432 8.90253,3.08292 0.63355,0.027 1.2474,-1.19956 2.47565,-4.94676 z m -5.94309,0.12982 c -0.8356,-0.16094 -1.12303,-0.56144 -1.11735,-1.55691 0.012,-2.10271 0.5955,-2.64459 2.44856,-2.27398 1.50697,0.30139 1.61577,0.44884 1.34186,1.81837 -0.16393,0.81971 -0.29807,1.68726 -0.29807,1.92789 0,0.44835 -0.41063,0.46299 -2.375,0.0846 z M 86.648738,246.71093 c -5.62488,-2.86828 -10.44473,-5.43271 -10.71077,-5.69876 -0.42886,-0.42886 -5.28028,-15.19154 -5.30312,-16.13717 -0.0182,-0.75476 1.33258,-0.31395 5.49095,1.79189 2.3375,1.18373 9.70625,4.91009 16.375,8.28079 6.66875,3.3707 12.125002,6.30583 12.125002,6.52251 0,0.42908 -3.88496,2.02981 -4.926332,2.02981 -0.3536,0 -5.27087,-2.35659 -10.92727,-5.23687 -5.6564,-2.88028 -10.44907,-5.13509 -10.65036,-5.01068 -0.2013,0.12441 -0.0263,1.25814 0.38896,2.5194 l 0.75495,2.2932 9.50733,4.75867 c 10.88854,5.45001 8.83898,5.27644 19.235392,1.62894 4.85712,-1.70408 6.00108,-2.27791 5.5,-2.75889 -0.85023,-0.81612 -2.87505,-1.89599 -18.632672,-9.93709 -7.425,-3.78898 -17.55,-8.96872 -22.5,-11.51054 -4.95,-2.54182 -18,-9.17929 -29,-14.74993 -29.09091,-14.73227 -39.3720305,-20.02957 -40.5000005,-20.86745 -0.96576,-0.71738 -0.9572,-0.73246 0.25,-0.44021 0.6875,0.16643 4.175,0.75759 7.7500005,1.31367 3.575,0.55609 7.7375,1.23153 9.25,1.50098 1.5125,0.26945 6.4625,1.05687 11,1.74982 4.5375,0.69294 9.375,1.46879 10.75,1.7241 1.375,0.25531 4.8625,0.8205 7.75,1.25598 2.8875,0.43548 6.54375,1.01118 8.125,1.27933 6.96294,1.18083 8.92755,1.49749 13.875,2.23639 2.8875,0.43125 6.2625,0.98509 7.5,1.23076 1.2375,0.24567 3.9375,0.68955 6,0.98639 2.0625,0.29684 7.2375,1.08826 11.5,1.75871 4.262502,0.67045 10.112502,1.57748 13.000002,2.01561 2.8875,0.43813 6.6,1.01218 8.25,1.27566 6.98916,1.11605 8.75,1.31285 8.75,0.97792 0,-0.9478 -8.9226,-13.35626 -9.875,-13.73295 -0.92965,-0.36769 -14.67061,-2.59976 -18.875002,-3.06603 -2.31613,-0.25687 -2.62871,-0.15607 -4.25,1.37046 -1.5566,1.46562 -1.63949,1.66464 -0.75,1.80085 0.55,0.0842 2.2375,0.37014 3.75,0.63537 1.5125,0.26523 5.000002,0.82602 7.750002,1.2462 11.85823,1.81183 11.65691,1.73405 13.91921,5.37723 0.84203,1.35599 0.83716,1.375 -0.35245,1.375 -0.66346,0 -2.9749,-0.31314 -5.13653,-0.69587 -2.16163,-0.38273 -5.61773,-0.96654 -7.68023,-1.29735 -2.0625,-0.33081 -4.875,-0.79136 -6.250002,-1.02344 -1.375,-0.23208 -4.975,-0.78756 -8,-1.2344 -3.025,-0.44684 -6.57083,-1.04609 -7.87961,-1.33166 l -2.37961,-0.51923 1.69811,-1.32402 c 0.93397,-0.72822 4.11407,-3.10059 7.06689,-5.27194 l 5.36878,-3.94792 5.06272,0.62174 c 2.784492,0.34195 5.962722,0.80729 7.062722,1.03409 1.1,0.22679 3.6875,0.66963 5.75,0.98408 7.27585,1.10928 6.81131,0.79953 11.77147,7.84886 10.05472,14.28965 9.91426,14.02814 8.54273,15.90381 -0.63316,0.86591 -0.94972,0.89232 -4.125,0.34411 -4.71744,-0.81445 -11.73714,-1.96552 -15.9392,-2.61366 -1.925,-0.29692 -4.7375,-0.74164 -6.25,-0.98827 -1.5125,-0.24663 -5,-0.80125 -7.750002,-1.23248 -2.75,-0.43122 -6.2375,-1.00042 -7.75,-1.26487 -1.5125,-0.26446 -5.1125,-0.82868 -8,-1.25384 -2.8875,-0.42515 -6.4875,-0.98852 -8,-1.25192 -1.5125,-0.26341 -6.4625,-1.04801 -11,-1.74355 -7.85993,-1.20483 -10.31341,-1.60328 -16.875,-2.74058 -2.72627,-0.47254 -10.02521,-1.59807 -14.375,-2.21671 -1.1,-0.15644 -2.50625,-0.42331 -3.125,-0.59303 -0.61875,-0.16972 -1.125,-0.0981 -1.125,0.15926 0,0.48526 3.55379,2.35075 31.25,16.40399 9.075,4.60471 21.45,10.90242 27.5,13.9949 6.05,3.09248 16.441742,8.37256 23.092772,11.73351 l 12.09277,6.11081 -0.56274,1.32779 c -0.3095,0.73029 -0.70202,1.49856 -0.87225,1.70727 -0.65562,0.80382 -21.539462,7.88413 -23.105492,7.83351 -0.62978,-0.0203 -5.74724,-2.38378 -11.37212,-5.25206 z m 314.227032,3.57949 c -2.475,-0.87292 -6.63747,-2.32475 -9.24997,-3.22628 -6.64458,-2.29295 -7.70801,-2.87139 -8.33563,-4.53414 l -0.55031,-1.45794 12.56797,-6.3532 c 6.91234,-3.49426 17.06794,-8.65572 22.56794,-11.46991 5.5,-2.8142 17.875,-9.11362 27.50005,-13.99873 27.7366,-14.07752 31.25,-15.92185 31.25,-16.40431 0,-0.24988 -0.6187,-0.29564 -1.375,-0.10169 -1.4285,0.36634 -4.7204,0.89165 -11.125,1.77528 -2.0625,0.28456 -4.875,0.72427 -6.25,0.97714 -4.3854,0.80648 -8.359,1.45768 -13.75,2.25336 -2.8875,0.42618 -6.48755,0.98581 -8.00005,1.24362 -5.5116,0.93947 -17.2382,2.80655 -30,4.77652 -2.6125,0.40328 -5.9875,0.94871 -7.5,1.21207 -1.51247,0.26336 -4.21247,0.70336 -5.99997,0.97778 -1.7875,0.27442 -5.6125,0.86198 -8.5,1.30569 -2.8875,0.44371 -6.19338,1.01545 -7.34641,1.27053 -3.68074,0.81429 -4.53577,0.63849 -4.89715,-1.00688 -0.18483,-0.8415 -0.0599,-1.96451 0.2921,-2.625 1.22235,-2.29386 13.04077,-18.66452 13.7684,-19.07174 0.41022,-0.22958 2.13797,-0.6323 3.83945,-0.89493 1.70148,-0.26263 4.33111,-0.68629 5.84361,-0.94146 1.5125,-0.25518 5.48727,-0.8464 8.83287,-1.31383 l 6.0828,-0.84986 5.6672,4.18885 c 3.1169,2.30387 6.2786,4.68337 7.0259,5.28778 l 1.3587,1.09893 -2.3587,0.50395 c -1.2973,0.27717 -3.9338,0.74301 -5.8588,1.0352 -8.7719,1.33145 -13.7092,2.10534 -16.25,2.54708 -9.35632,1.62665 -12.46833,2.08263 -13.16485,1.92893 -0.62634,-0.13822 -0.44485,-0.64018 0.89797,-2.4837 1.86302,-2.55765 1.4488,-2.42427 13.01688,-4.19176 2.75,-0.42018 6.2375,-0.98097 7.75,-1.2462 1.5125,-0.26523 3.2,-0.55115 3.75,-0.63537 0.8889,-0.13611 0.8055,-0.33506 -0.75,-1.78978 -2.0396,-1.9075 -2.0742,-1.90786 -13.25,-0.13775 -10.95143,1.73457 -10.18247,1.35469 -14.06211,6.94705 -5.25282,7.57172 -5.68786,8.23013 -5.68786,8.60814 0,0.33447 1.69726,0.14522 8.75,-0.97565 1.65,-0.26223 5.475,-0.83789 8.5,-1.27925 3.02497,-0.44135 6.51247,-0.99658 7.74997,-1.23383 1.2375,-0.23726 3.9375,-0.67547 6,-0.97381 5.5253,-0.79921 29.3154,-4.57426 38.00005,-6.02989 1.5125,-0.25351 5,-0.81646 7.75,-1.25099 2.75,-0.43454 6.35,-1.0092 8,-1.27702 1.65,-0.26783 6.6,-1.05083 11,-1.74001 4.4,-0.68918 9.2375,-1.47064 10.75,-1.73659 1.5125,-0.26594 5.675,-0.93851 9.25,-1.4946 3.575,-0.55608 7.0625,-1.14724 7.75,-1.31367 3.2224,-0.78008 1.1276,0.32728 -41.25,21.80618 -11,5.5753 -24.61255,12.49671 -30.25005,15.38091 -39.26713,20.08946 -37.90039,19.37528 -38.88265,20.31813 -0.50108,0.48098 0.64289,1.05481 5.49995,2.75889 10.3776,3.64087 8.423,3.78335 18.7046,-1.36349 4.9369,-2.47133 9.2958,-4.87853 9.6866,-5.34933 0.9522,-1.14739 1.972,-4.19291 1.5013,-4.48379 -0.207,-0.12791 -5.0116,2.12465 -10.6769,5.00569 -5.6654,2.88104 -10.5816,5.23826 -10.925,5.23826 -1.0307,0 -4.9079,-1.60557 -4.9079,-2.03237 0,-0.21808 5.903,-3.37164 13.1177,-7.00791 7.2148,-3.63627 14.5835,-7.36368 16.375,-8.28312 3.6935,-1.89557 4.7507,-2.09012 4.3559,-0.8016 -0.1475,0.48125 -0.7174,2.3375 -1.2665,4.125 -0.5492,1.7875 -1.5036,4.9375 -2.121,7 -0.6174,2.0625 -1.3808,4.03653 -1.6964,4.38673 -1.1452,1.27068 -21.339,11.11315 -22.6755,11.05205 -0.7365,-0.0337 -3.3642,-0.77544 -5.8392,-1.64836 z M 213.8758,222.21385 c -3.85,-0.64836 -9.3625,-1.53843 -12.25,-1.97796 -2.8875,-0.43952 -6.375,-1.00009 -7.75,-1.2457 -5.01573,-0.89596 -8.60974,-1.48152 -13.75,-2.24019 -4.90459,-0.72389 -6.37006,-0.96051 -13.875,-2.24025 -1.58125,-0.26963 -8.725,-1.41929 -15.875,-2.5548 -7.15,-1.13551 -13.17156,-2.22271 -13.38125,-2.41601 -0.20969,-0.19329 -0.23377,-1.08885 -0.0535,-1.99013 0.2829,-1.41448 1.55897,-2.55883 9.32638,-8.36369 4.94925,-3.69875 9.41985,-6.95042 9.93466,-7.22594 0.91204,-0.48811 2.04541,-0.36997 9.92372,1.03442 1.5125,0.26961 5,0.83648 7.75,1.25969 2.75,0.42321 5.48141,0.87491 6.06979,1.00376 0.67108,0.14697 2.95384,2.84509 6.125,7.23948 2.78037,3.85284 5.05521,7.1173 5.05521,7.25433 0,0.39498 -2.36725,0.29035 -4.65359,-0.20569 -2.27972,-0.4946 -5.72783,-1.07679 -13.84641,-2.33784 -13.55773,-2.10593 -18.69894,-3.05904 -18.8236,-3.48967 -0.0745,-0.25721 0.79663,-1.11363 1.93575,-1.90315 2.31651,-1.60556 2.55045,-1.60687 12.13785,-0.0675 2.75,0.44154 6.2375,0.99481 7.75,1.22949 1.5125,0.23468 3.36875,0.58538 4.125,0.77932 1.72234,0.44171 1.84322,-0.52568 0.30934,-2.47569 -1.41192,-1.79496 -2.25079,-2.06756 -10.04603,-3.26457 -3.65107,-0.56064 -7.83064,-1.2621 -9.28793,-1.5588 -3.07117,-0.62528 -2.50507,-0.89933 -10.72538,5.19227 -2.95625,2.1907 -5.375,4.16322 -5.375,4.38336 0,0.5095 0.96706,0.78866 5,1.4434 1.7875,0.2902 4.54375,0.75187 6.125,1.02594 1.58125,0.27407 4.16875,0.72275 5.75,0.99705 1.58125,0.27431 6.475,1.06604 10.875,1.7594 4.4,0.69336 9.35,1.47879 11,1.7454 1.65,0.26661 5.25,0.82852 8,1.2487 2.75,0.42017 6.2375,0.9791 7.75,1.24206 1.5125,0.26296 5,0.83114 7.75,1.26263 2.75,0.43149 6.29615,1.012 7.88034,1.29001 1.58418,0.27802 3.08335,0.38001 3.33149,0.22665 0.24814,-0.15335 0.59459,-1.2339 0.76989,-2.40121 0.64925,-4.32327 1.79462,-11.71252 2.26653,-14.62238 0.2676,-1.65 1.06232,-6.7125 1.76605,-11.25 0.70373,-4.5375 1.70822,-10.95 2.23219,-14.25 0.52397,-3.3 1.31806,-8.475 1.76465,-11.5 0.44658,-3.025 1.00684,-6.625 1.24503,-8 0.913,-5.27055 1.5923,-11.3182 1.30373,-11.60677 -0.29614,-0.29613 -6.14798,3.54425 -11.0589,7.25761 -2.77639,2.09936 -2.80021,2.16808 -4.45402,12.84916 -1.56848,10.13001 -1.56953,10.34937 -0.0579,12.1459 0.74361,0.88373 1.53694,1.4925 1.76294,1.35282 0.22601,-0.13968 0.55721,-1.20903 0.73601,-2.37634 1.66373,-10.8618 2.62661,-16.89959 3.07025,-19.25198 0.19548,-1.03654 3.76747,-4.1204 4.7726,-4.1204 0.4236,0 0.26671,1.80156 -0.58784,6.75 -0.23744,1.375 -0.79018,4.975 -1.22829,8 -0.43812,3.025 -0.99915,6.625 -1.24674,8 -0.24758,1.375 -0.83564,5.0875 -1.30678,8.25 -0.47115,3.1625 -1.0022,5.91702 -1.1801,6.12115 -0.32708,0.37529 -1.65445,-1.2846 -7.41828,-9.27666 l -3.17723,-4.40551 0.31458,-2.84449 c 0.17302,-1.56447 0.51014,-3.96949 0.74916,-5.34449 0.23901,-1.375 0.80836,-5.0875 1.26522,-8.25 0.45686,-3.1625 1.04675,-6.3331 1.31087,-7.04579 0.31621,-0.85327 3.32419,-3.32923 8.8078,-7.25 11.13016,-7.95803 10.93987,-7.84867 12.98857,-7.46433 l 1.71353,0.32146 -0.31559,2.59433 c -0.17358,1.42688 -0.51139,3.60683 -0.75069,4.84433 -0.2393,1.2375 -0.67415,3.825 -0.96634,5.75 -0.29219,1.925 -0.8661,5.6375 -1.27535,8.25 -0.40926,2.6125 -1.32099,8.4625 -2.02606,13 -0.70509,4.5375 -1.49666,9.6 -1.75906,11.25 -0.26241,1.65 -1.04805,6.7125 -1.74588,11.25 -0.69783,4.5375 -1.4866,9.4875 -1.75283,11 -0.26622,1.5125 -0.82899,5.225 -1.25058,8.25 -0.84387,6.05486 -1.59339,9.2787 -2.13809,9.19634 -0.19521,-0.0295 -3.50493,-0.58414 -7.35493,-1.23249 z m 69.28308,-0.58468 c -0.28026,-1.03354 -0.85451,-4.35417 -1.2761,-7.37917 -0.4216,-3.025 -0.98575,-6.7375 -1.25367,-8.25 -0.26791,-1.5125 -0.82561,-5 -1.23932,-7.75 -1.17012,-7.77795 -1.78739,-11.76407 -2.28414,-14.75 -0.25163,-1.5125 -1.03253,-6.4625 -1.73534,-11 -0.70282,-4.5375 -1.61269,-10.3875 -2.02194,-13 -0.40925,-2.6125 -0.98316,-6.325 -1.27535,-8.25 -0.29219,-1.925 -0.72704,-4.5125 -0.96634,-5.75 -0.2393,-1.2375 -0.57711,-3.41745 -0.75068,-4.84434 l -0.3156,-2.59433 1.73375,-0.32525 c 1.99562,-0.37438 1.45221,-0.68918 13.26742,7.6858 5.38899,3.81988 8.16292,6.10555 8.49535,7 0.27148,0.73046 0.86739,3.91562 1.32425,7.07812 0.45686,3.1625 1.02621,6.875 1.26523,8.25 0.23901,1.375 0.57558,3.77569 0.74795,5.33486 l 0.31338,2.83486 -4.27136,5.91514 c -6.0961,8.4421 -6.18376,8.54589 -6.47203,7.66187 -0.13393,-0.4107 -0.60031,-3.10923 -1.0364,-5.99673 -0.43609,-2.8875 -1.00621,-6.4875 -1.26693,-8 -0.26072,-1.5125 -0.83461,-5.225 -1.27531,-8.25 -0.4407,-3.025 -0.99555,-6.625 -1.233,-8 -0.85454,-4.94845 -1.01143,-6.75 -0.58783,-6.75 1.00513,0 4.57712,3.08386 4.7726,4.1204 0.38958,2.06579 1.27602,7.56642 2.07556,12.8796 1.46781,9.75396 1.68036,10.17058 3.68639,7.22562 l 1.20362,-1.76698 -0.86202,-5.85432 c -0.4741,-3.21988 -1.06734,-7.31682 -1.3183,-9.10432 -0.74808,-5.32842 -1.11036,-6.11061 -3.76059,-8.11938 -4.8337,-3.66376 -10.72979,-7.53383 -11.02623,-7.23739 -0.29386,0.29386 0.42318,6.59765 1.32023,11.60677 0.24624,1.375 0.70246,4.3 1.01381,6.5 0.31136,2.2 0.89275,6.025 1.29197,8.5 0.39923,2.475 0.93454,5.85 1.18958,7.5 0.47997,3.10524 2.47462,15.94635 3.76683,24.25 0.40656,2.6125 0.95428,6.1 1.21715,7.75 0.26287,1.65 0.61732,3.95507 0.78765,5.12238 0.17033,1.16731 0.53615,2.26234 0.81293,2.4334 0.27679,0.17106 1.77596,0.0673 3.3315,-0.2305 2.8128,-0.53857 9.14532,-1.57971 15.82825,-2.60235 1.925,-0.29457 4.7375,-0.74573 6.25,-1.00257 1.5125,-0.25685 4.8875,-0.79695 7.5,-1.20022 7.97739,-1.23144 20.58681,-3.24435 23.625,-3.7714 1.58125,-0.27431 4.16875,-0.72298 5.75,-0.99705 1.58125,-0.27407 4.3375,-0.73575 6.125,-1.02594 4.03451,-0.65499 5,-0.93389 5,-1.44433 0,-0.37415 -9.09186,-7.3242 -12.10037,-9.24984 -1.15559,-0.73964 -1.73258,-0.7865 -4,-0.32487 -1.4573,0.2967 -5.63687,0.99817 -9.28794,1.55881 -7.79523,1.197 -8.63411,1.46961 -10.04603,3.26457 -1.53387,1.95 -1.41299,2.91739 0.30934,2.47569 0.75625,-0.19395 2.6125,-0.54464 4.125,-0.77932 1.5125,-0.23468 5,-0.78795 7.75,-1.22949 9.5874,-1.53933 9.82134,-1.53803 12.13785,0.0675 1.13912,0.78953 2.0054,1.66039 1.92505,1.93527 -0.0803,0.27487 -1.25236,0.66776 -2.60449,0.87309 -4.88236,0.7414 -18.90303,2.98541 -23.95841,3.83455 -8.86233,1.48859 -10.27904,1.68021 -10.53436,1.4249 -0.5371,-0.53711 9.80047,-14.368 10.93703,-14.63291 0.60353,-0.14068 2.67233,-0.48736 4.59733,-0.77041 3.5521,-0.52229 5.33778,-0.81131 13.64521,-2.2085 3.78566,-0.63669 4.8538,-0.66461 5.77249,-0.15087 0.62001,0.34671 5.07939,3.59459 9.90973,7.21753 7.54519,5.65917 8.8284,6.817 9.10875,8.21875 0.17948,0.89738 0.15476,1.78716 -0.0549,1.97728 -0.41339,0.37483 -14.50405,2.73028 -40.13125,6.70849 -4.5375,0.70437 -9.4875,1.49802 -11,1.76367 -2.84453,0.49958 -13.43299,2.20357 -24.75,3.98298 -3.575,0.56211 -6.99665,1.13407 -7.60368,1.27102 -0.92941,0.20969 -1.18414,-0.0477 -1.61324,-1.63017 z m -152.7421,-27.16406 c -2.93566,-4.16645 -5.27083,-7.75707 -5.18927,-7.97915 0.32072,-0.87329 14.55035,-11.0346 15.1372,-10.8094 0.60441,0.23193 10.09842,13.31775 10.58809,14.59381 0.14353,0.37402 -2.72717,2.8333 -7.06764,6.05474 -4.02013,2.98369 -7.49417,5.49025 -7.72008,5.57013 -0.2259,0.0799 -2.81264,-3.26367 -5.7483,-7.43013 z m 11.01205,-1.50339 c 2.60483,-1.88046 4.07974,-3.26187 3.87035,-3.625 -1.72117,-2.98488 -5.44357,-7.83672 -6.01244,-7.83672 -1.00752,0 -8.16094,5.37525 -8.16094,6.13232 0,0.63416 5.40946,8.36768 5.85303,8.36768 0.13274,0 2.13523,-1.36723 4.45,-3.03828 z m -5.00197,-3.29451 c -0.94398,-1.29457 -0.94267,-1.30618 0.25,-2.22317 1.59074,-1.22304 2.18163,-1.17648 3.11322,0.24531 0.72776,1.11069 0.70463,1.25949 -0.34972,2.25 -1.44343,1.35603 -1.85324,1.31902 -3.0135,-0.27214 z m 225.07394,6.80299 c -4.05625,-3.03344 -7.37446,-5.67394 -7.37379,-5.86777 0.002,-0.61068 9.75766,-14.24904 10.54982,-14.74872 0.57473,-0.36253 2.48236,0.8035 7.97717,4.876 3.97199,2.94386 7.28853,5.53417 7.37009,5.75626 0.17125,0.46628 -10.3342,15.51768 -10.8233,15.50681 -0.17874,-0.004 -3.64374,-2.48913 -7.69999,-5.52258 z m 9.84056,-4.42133 c 1.53144,-2.17313 2.78444,-4.1782 2.78444,-4.45572 0,-0.68204 -7.23798,-6.09315 -8.15028,-6.09315 -0.67467,0 -5.60686,6.58697 -5.94686,7.94207 -0.13497,0.53793 7.3175,6.48945 8.1877,6.53867 0.18731,0.0106 1.59356,-1.75875 3.125,-3.93187 z m -5.56743,-2.12296 c -0.9948,-0.9948 -1.01721,-1.1609 -0.30361,-2.25 0.92272,-1.40825 1.51666,-1.45262 3.10442,-0.23187 1.19267,0.91699 1.19398,0.9286 0.25,2.22317 -1.16265,1.59445 -1.67188,1.63763 -3.05081,0.2587 z M 206.93192,138.875 c -2.91276,-3.91875 -5.29822,-7.40032 -5.30103,-7.73683 -0.005,-0.55212 14.28984,-11.106 15.07296,-11.12867 0.60709,-0.0176 10.67195,14.0006 10.67195,14.86372 0,0.8404 -13.37477,11.01986 -14.57398,11.09217 -0.31568,0.019 -2.95714,-3.17164 -5.8699,-7.09039 z m 11.44388,-1.78256 c 1.65,-1.23984 3.17352,-2.40262 3.38561,-2.58396 0.30261,-0.25874 -3.96684,-6.84718 -5.59575,-8.63512 -0.18873,-0.20715 -2.3028,1.05093 -4.69794,2.79574 l -4.35479,3.17238 1.31264,1.95426 c 0.72196,1.07485 2.11198,3.01106 3.08894,4.30271 2.04353,2.70179 1.8986,2.72303 6.86129,-1.00601 z m -5.21837,-3.04802 -1.04464,-1.46706 1.51747,-1.08054 1.51746,-1.08053 0.97241,1.16685 c 1.32043,1.58449 1.25012,2.05685 -0.4562,3.06479 -1.45174,0.85757 -1.46909,0.85339 -2.5065,-0.60351 z m 71.34486,6.5702 -7.37351,-5.2947 0.83205,-1.28496 c 3.03859,-4.69258 10.41776,-14.04494 10.92739,-13.84938 1.49017,0.57184 14.73706,10.43468 14.73249,10.96893 -0.008,0.92112 -10.52225,14.85139 -11.17093,14.80014 -0.31569,-0.0249 -3.89206,-2.42796 -7.94749,-5.34003 z m 11.74718,-6.017 1.87368,-2.72868 -3.87368,-2.92143 c -2.13052,-1.60679 -4.21117,-2.92464 -4.62367,-2.92855 -0.65485,-0.006 -2.67222,2.50295 -5.62879,7.00096 l -0.87878,1.33695 3.37878,2.49313 c 5.23835,3.86527 5.17529,3.84592 6.62879,2.03429 0.6875,-0.85689 2.09316,-2.7859 3.12367,-4.28667 z m -6.74867,0.0232 c -1.61839,-1.0034 -1.67521,-1.47072 -0.36933,-3.03774 l 0.9724,-1.16685 1.51747,1.08053 1.51747,1.08054 -1.04055,1.46132 c -0.5723,0.80372 -1.08148,1.45533 -1.13151,1.44801 -0.05,-0.007 -0.7097,-0.39693 -1.46595,-0.86581 z m -55.93847,-0.50802 c -1.62086,-0.20658 -1.78114,-0.38906 -9.62186,-10.95444 l -6.37594,-8.59157 0.50611,-3.40843 c 2.35994,-15.893415 3.15847,-20.490275 3.69026,-21.24356 0.708,-1.0029 13.97826,-10.468165 14.26888,-10.177545 0.10603,0.106035 -0.39898,3.864765 -1.12226,8.35274 -1.65636,10.277736 -2.56828,16.077025 -3.32735,21.159945 -0.32855,2.2 -0.84829,5.07688 -1.15499,6.39306 l -0.55763,2.39305 -1.62088,-2.10895 c -1.79418,-2.33443 -1.95643,-3.61203 -1.09466,-8.61951 1.56039,-9.066969 2.84634,-17.581695 2.6816,-17.75582 -0.4534,-0.479235 -4.21179,2.56002 -4.41981,3.57412 -0.12682,0.618225 -0.49153,2.699051 -0.81047,4.624051 -0.31894,1.925 -0.78114,4.576469 -1.02711,5.892159 -0.24598,1.31569 -0.57796,4.24069 -0.73774,6.5 l -0.29052,4.10784 4.91392,6.44787 4.91392,6.44787 0.65814,-3.19787 c 1.03944,-5.05061 1.48982,-7.63916 2.86176,-16.44787 2.3983,-15.398615 3.73009,-23.742415 4.22976,-26.5 0.27407,-1.5125 0.9669,-5.9 1.53963,-9.75 0.57273,-3.85 1.237,-8.2375 1.47614,-9.75 0.23914,-1.5125 0.78455,-5 1.21201,-7.75 1.56556,-10.071679 2.27445,-14.565985 2.76031,-17.5 0.27324,-1.65 0.83574,-5.25 1.25,-8 0.41427,-2.75 0.97389,-6.35 1.24361,-8 0.26972,-1.65 0.83707,-5.25 1.26079,-8 1.24229,-8.0627006 1.28218,-8.2499396 1.75785,-8.2499396 0.47688,0 0.52597,0.231192 1.75183,8.2499996 0.4204,2.75 0.98012,6.2375 1.24383,7.75 0.2637,1.5125 0.83001,5.1125 1.25846,8 0.42845,2.8875 0.99312,6.6 1.25484,8.25 0.2617,1.65 1.04948,6.7125 1.75062,11.25 1.53907,9.96029 2.16318,13.87123 2.79267,17.5 0.26237,1.5125 0.9315,5.7875 1.48694,9.5 0.55545,3.7125 1.20985,7.9875 1.45423,9.5 1.93082,11.950001 2.47713,15.365471 3.75882,23.5 0.45496,2.8875 1.01616,6.375 1.24711,7.75 0.23095,1.375 0.66068,3.9625 0.95496,5.75 1.14419,6.95014 0.69568,6.97237 6.23887,-0.30932 l 4.90296,-6.44068 -0.29967,-4.10784 c -0.16481,-2.25931 -0.50091,-5.18431 -0.74689,-6.5 -0.24597,-1.31569 -0.70817,-3.967159 -1.02711,-5.892159 -0.31894,-1.925 -0.68365,-4.005826 -0.81047,-4.624051 -0.20802,-1.0141 -3.96641,-4.053355 -4.41981,-3.57412 -0.16474,0.174125 1.12121,8.688851 2.6816,17.75582 0.86177,5.00748 0.69952,6.28508 -1.09467,8.61951 l -1.62087,2.10895 -0.55764,-2.39305 c -0.3067,-1.31618 -0.82644,-4.19306 -1.15498,-6.39306 -0.75907,-5.08293 -1.671,-10.882209 -3.32735,-21.159945 -0.72328,-4.487975 -1.2283,-8.246705 -1.12226,-8.35274 0.28913,-0.28913 13.55892,9.171945 14.26366,10.16968 0.33532,0.47474 0.95195,3.22113 1.37027,6.103086 0.41832,2.88195 0.99627,6.702419 1.28433,8.489919 0.28805,1.7875 0.75397,4.78379 1.03536,6.65842 l 0.51162,3.40843 -6.36942,8.59157 c -7.49893,10.11515 -8.0527,10.73558 -9.69184,10.85852 -2.1989,0.16492 -2.5,0.009 -2.5,-1.29553 0,-0.70322 -0.21011,-2.22197 -0.46691,-3.375 -0.2568,-1.15303 -0.7271,-3.89641 -1.04512,-6.09641 -0.31802,-2.2 -0.90486,-6.025 -1.30408,-8.5 -0.39923,-2.475 -0.93454,-5.85 -1.18958,-7.5 -0.25503,-1.65 -1.03651,-6.7125 -1.73661,-11.249999 C 262.6834,91.4625 261.89146,86.4 261.62363,84.75 260.79346,79.635595 258.62558,65.98625 257.85149,61 c -0.40557,-2.6125 -0.95635,-6.1 -1.22394,-7.75 -0.26759,-1.65 -1.05953,-6.7125 -1.75985,-11.25 -0.70032,-4.5375 -1.38894,-8.98125 -1.53026,-9.875 -0.33034,-2.089136 -1.09293,-2.089136 -1.42327,0 -0.14132,0.89375 -0.83402,5.3375 -1.53933,9.875 -2.46694,15.870795 -2.76429,17.7719 -3.2455,20.75 -0.26661,1.65 -1.05392,6.6 -1.74958,11 -0.69565,4.4 -1.48395,9.35 -1.75178,11 -0.26783,1.65 -1.05977,6.7125 -1.75987,11.250001 -1.61725,10.481699 -1.95206,12.600009 -3.43777,21.749999 -0.66978,4.125 -1.50851,9.46241 -1.86384,11.86091 -0.35534,2.3985 -0.8811,4.43031 -1.16838,4.51513 -0.28727,0.0848 -1.11338,0.0789 -1.83579,-0.0132 z"
       id="path46" />
  </g>
</svg>
